<svg width="44" height="44" viewBox="0 0 44 44" fill="none" xmlns="http://www.w3.org/2000/svg">
<path d="M22 16.2724C18.8461 16.2724 16.2723 18.8462 16.2723 22.0001C16.2723 25.154 18.8461 27.7278 22 27.7278C25.1539 27.7278 27.7277 25.154 27.7277 22.0001C27.7277 18.8462 25.1539 16.2724 22 16.2724ZM39.1789 22.0001C39.1789 19.6282 39.2004 17.2778 39.0672 14.9103C38.934 12.1603 38.3066 9.71964 36.2957 7.7087C34.2805 5.69347 31.8441 5.07042 29.0941 4.93722C26.7223 4.80401 24.3719 4.8255 22.0043 4.8255C19.6324 4.8255 17.282 4.80401 14.9144 4.93722C12.1644 5.07042 9.72382 5.69776 7.71288 7.7087C5.69765 9.72393 5.0746 12.1603 4.9414 14.9103C4.80819 17.2821 4.82968 19.6325 4.82968 22.0001C4.82968 24.3677 4.80819 26.7224 4.9414 29.09C5.0746 31.84 5.70194 34.2806 7.71288 36.2915C9.72812 38.3067 12.1644 38.9298 14.9144 39.063C17.2863 39.1962 19.6367 39.1747 22.0043 39.1747C24.3762 39.1747 26.7266 39.1962 29.0941 39.063C31.8441 38.9298 34.2848 38.3025 36.2957 36.2915C38.3109 34.2763 38.934 31.84 39.0672 29.09C39.2047 26.7224 39.1789 24.372 39.1789 22.0001ZM22 30.813C17.123 30.813 13.1871 26.8771 13.1871 22.0001C13.1871 17.1232 17.123 13.1872 22 13.1872C26.8769 13.1872 30.8129 17.1232 30.8129 22.0001C30.8129 26.8771 26.8769 30.813 22 30.813ZM31.1738 14.8845C30.0351 14.8845 29.1156 13.965 29.1156 12.8263C29.1156 11.6876 30.0351 10.7681 31.1738 10.7681C32.3125 10.7681 33.232 11.6876 33.232 12.8263C33.2324 13.0967 33.1794 13.3645 33.076 13.6143C32.9727 13.8642 32.8211 14.0912 32.6299 14.2824C32.4388 14.4736 32.2117 14.6252 31.9619 14.7285C31.712 14.8318 31.4442 14.8848 31.1738 14.8845Z" fill="white"/>
</svg>
