<svg xmlns="http://www.w3.org/2000/svg" xmlns:xlink="http://www.w3.org/1999/xlink" width="500" zoomAndPan="magnify" viewBox="0 0 375 374.999991" height="500" preserveAspectRatio="xMidYMid meet" version="1.2"><g id="c6080f5be6"><path style=" stroke:none;fill-rule:nonzero;fill:#fdfdfd;fill-opacity:1;" d="M 185.398438 75.363281 C 206.058594 74.921875 226.121094 80.5 244.199219 90.300781 C 250.507812 93.964844 256.222656 98.371094 261.75 103.125 L 263.238281 104.363281 C 266.449219 107.078125 269.191406 110.019531 271.875 113.25 L 273.28125 114.886719 C 286.140625 130.117188 294.351562 148.105469 298.117188 167.671875 C 301.507812 188.058594 299.078125 208.332031 292.203125 227.738281 C 288.613281 237.261719 283.433594 246.242188 277.273438 254.324219 L 275.925781 256.125 C 263.011719 272.65625 246.363281 284.0625 227.199219 292.25 C 220.902344 294.703125 214.351562 296.148438 207.75 297.523438 L 206.085938 297.910156 C 200.238281 299.148438 194.375 299.171875 188.429688 299.171875 L 186.761719 299.171875 C 177.027344 299.15625 167.878906 298.152344 158.476562 295.5 L 156.765625 295.019531 C 146.082031 291.902344 136.003906 287.53125 126.75 281.324219 L 125.585938 280.546875 C 119.644531 276.546875 114.34375 272.121094 109.199219 267.148438 L 107.433594 265.488281 C 95.308594 253.820312 85.953125 237.953125 80.851562 221.925781 C 79.539062 217.246094 78.457031 212.507812 77.476562 207.75 L 77.097656 205.9375 C 73.976562 189.96875 75.328125 173.429688 79.5 157.800781 L 79.867188 156.421875 C 84.402344 139.828125 92.785156 123.425781 105.066406 111.226562 L 106.1875 110.164062 C 107.328125 109.09375 107.328125 109.09375 108.695312 107.257812 C 111.324219 104.042969 114.707031 101.601562 117.976562 99.074219 L 120.0625 97.445312 C 133.726562 87.074219 149.261719 81.019531 165.898438 77.476562 L 168.097656 76.988281 C 173.808594 75.832031 179.59375 75.621094 185.398438 75.363281 M 164.550781 88.273438 C 165.535156 88.3125 166.519531 88.335938 167.503906 88.359375 L 169.164062 88.40625 L 170.625 88.273438 L 171.976562 86.925781 C 169.042969 86.8125 167.109375 86.835938 164.550781 88.273438 "/><path style=" stroke:none;fill-rule:nonzero;fill:#4736c1;fill-opacity:1;" d="M 185.398438 75.363281 C 206.058594 74.921875 226.121094 80.5 244.199219 90.300781 C 250.507812 93.964844 256.222656 98.371094 261.75 103.125 L 263.238281 104.363281 C 266.449219 107.078125 269.191406 110.019531 271.875 113.25 L 273.28125 114.886719 C 286.140625 130.117188 294.351562 148.105469 298.117188 167.671875 C 301.507812 188.058594 299.078125 208.332031 292.203125 227.738281 C 288.613281 237.261719 283.433594 246.242188 277.273438 254.324219 L 275.925781 256.125 C 263.011719 272.65625 246.363281 284.0625 227.199219 292.25 C 220.902344 294.703125 214.351562 296.148438 207.75 297.523438 L 206.085938 297.910156 C 200.238281 299.148438 194.375 299.171875 188.429688 299.171875 L 186.761719 299.171875 C 177.027344 299.15625 167.878906 298.152344 158.476562 295.5 L 156.765625 295.019531 C 146.082031 291.902344 136.003906 287.53125 126.75 281.324219 L 125.585938 280.546875 C 119.644531 276.546875 114.34375 272.121094 109.199219 267.148438 L 107.433594 265.488281 C 95.308594 253.820312 85.953125 237.953125 80.851562 221.925781 C 79.539062 217.246094 78.457031 212.507812 77.476562 207.75 L 77.097656 205.9375 C 73.976562 189.96875 75.328125 173.429688 79.5 157.800781 L 79.867188 156.421875 C 84.402344 139.828125 92.785156 123.425781 105.066406 111.226562 L 106.1875 110.164062 C 107.328125 109.09375 107.328125 109.09375 108.695312 107.257812 C 111.324219 104.042969 114.707031 101.601562 117.976562 99.074219 L 120.0625 97.445312 C 133.726562 87.074219 149.261719 81.019531 165.898438 77.476562 L 168.097656 76.988281 C 173.808594 75.832031 179.59375 75.621094 185.398438 75.363281 M 160.4375 89.117188 C 159.113281 89.640625 157.78125 90.0625 156.414062 90.472656 C 139.257812 95.683594 124.132812 105.792969 111.816406 118.777344 C 105.203125 126.34375 99.757812 134.566406 95.601562 143.707031 C 95.050781 144.910156 94.488281 146.109375 93.914062 147.300781 C 87.078125 162.21875 84.414062 179.480469 85.921875 195.78125 C 87.878906 214.769531 94.191406 232.203125 105.367188 247.726562 C 116.332031 262.4375 130.160156 273.488281 146.800781 281.152344 C 163.878906 288.394531 182.34375 291.175781 200.777344 288.90625 C 219.207031 286.25 236.53125 279.199219 251.191406 267.6875 C 257.480469 262.640625 262.925781 257.359375 267.824219 250.949219 L 268.722656 249.808594 C 273.296875 243.972656 276.988281 238.0625 280.0625 231.3125 C 280.617188 230.101562 281.1875 228.898438 281.761719 227.695312 C 288.890625 212.132812 291.203125 194.464844 289.636719 177.5 C 287.78125 160.011719 282.113281 143.484375 271.832031 129.113281 C 270.742188 127.632812 269.632812 126.171875 268.5 124.726562 L 267.636719 123.605469 C 265.132812 120.367188 265.132812 120.367188 262.425781 117.300781 L 261.074219 117.300781 L 259.726562 114.601562 L 258.375 114.601562 L 258.375 113.25 C 256.050781 111.050781 253.484375 109.128906 250.949219 107.175781 L 249.84375 106.316406 C 244.226562 102.003906 238.425781 98.585938 231.992188 95.621094 C 230.792969 95.0625 229.601562 94.492188 228.414062 93.910156 C 221.589844 90.738281 214.4375 89.042969 207.074219 87.601562 L 205.148438 87.210938 C 199.027344 86.117188 192.992188 86.042969 186.796875 86.074219 C 185.050781 86.082031 183.304688 86.074219 181.554688 86.066406 C 174.199219 86.058594 167.339844 86.3125 160.4375 89.117188 "/><path style=" stroke:none;fill-rule:nonzero;fill:#4736c1;fill-opacity:1;" d="M 246.898438 116.625 C 248.613281 120.046875 247.832031 125.320312 247.691406 129.105469 C 246.972656 139.679688 242.003906 150.289062 236.226562 159.023438 C 229.253906 169.199219 220.765625 177.8125 211.125 185.476562 L 209.605469 186.769531 C 204.019531 191.472656 197.761719 195.171875 191.550781 198.976562 L 189.898438 199.996094 C 188.34375 200.957031 186.785156 201.910156 185.222656 202.855469 L 183.800781 203.738281 C 182.015625 204.800781 180.351562 205.65625 178.324219 206.152344 C 176.699219 205.726562 176.699219 205.726562 174.667969 204 C 173.960938 203.261719 173.257812 202.515625 172.566406 201.757812 C 169.78125 198.78125 169.78125 198.78125 166.574219 196.273438 L 166.574219 194.925781 L 163.875 193.574219 L 163.875 192.226562 L 161.851562 191.550781 C 160.625 190.074219 160.625 190.074219 159.824219 188.175781 C 160.707031 184.609375 162.457031 181.445312 164.171875 178.21875 L 165.070312 176.523438 C 171.773438 164.023438 179.242188 152.210938 189.148438 142.015625 C 190.195312 140.921875 191.234375 139.820312 192.261719 138.710938 C 200.78125 129.691406 210.753906 122.636719 222.652344 118.882812 C 229.683594 116.808594 239.78125 113.886719 246.898438 116.625 M 145.777344 204.332031 L 148.351562 204.375 L 148.351562 205.726562 C 147.261719 206.75 147.261719 206.75 145.820312 207.917969 C 143.425781 209.953125 141.796875 211.777344 140.25 214.5 C 139.574219 216.53125 139.371094 218.238281 139.195312 220.363281 L 139.023438 222.398438 L 138.898438 223.949219 C 147.085938 222.757812 147.085938 222.757812 154.425781 219.226562 C 156.085938 217.738281 157.660156 216.160156 159.148438 214.5 L 161.175781 215.175781 C 162.097656 217.941406 162.1875 220.382812 161.851562 223.273438 C 160.890625 226.167969 159.457031 228.785156 158.011719 231.460938 C 156.476562 234.820312 156.242188 238.417969 156.304688 242.097656 C 156.574219 244.761719 157.277344 247.203125 158.476562 249.601562 C 160.015625 251.105469 161.292969 252.023438 163.199219 252.976562 C 165.253906 253.226562 167.222656 253.222656 169.273438 252.976562 C 171.652344 251.785156 172.960938 250.78125 174.507812 248.628906 C 175.320312 246.964844 176.054688 245.261719 176.699219 243.523438 C 177.921875 243.863281 177.921875 243.863281 179.398438 244.875 C 179.886719 246.121094 179.886719 246.121094 180.328125 247.574219 C 180.773438 249.015625 180.773438 249.015625 181.425781 250.273438 C 183.328125 251.546875 183.328125 251.546875 185.476562 251.625 C 186.945312 250.875 186.945312 250.875 188.175781 249.601562 C 188.886719 248.023438 188.886719 248.023438 189.355469 246.226562 C 192.597656 236.855469 200.566406 229.800781 207.75 223.273438 C 211.777344 219.847656 211.777344 219.847656 213.824219 218.550781 L 215.851562 218.550781 C 216.320312 220.421875 216.785156 222.296875 217.246094 224.171875 C 217.675781 225.859375 218.128906 227.539062 218.609375 229.214844 C 220.640625 236.394531 221.726562 243.230469 220.027344 250.640625 C 218.457031 255.289062 216.171875 258.847656 212.75 262.355469 C 210.414062 264.394531 207.980469 266.085938 205.050781 267.148438 L 202.351562 267.148438 L 203.023438 265.082031 C 204.148438 260.703125 203.804688 256.109375 203.699219 251.625 L 202.351562 251.625 L 201.847656 253.4375 C 200.246094 257.667969 196.871094 260.804688 193.433594 263.664062 C 189.078125 266.753906 184.265625 268.566406 179.0625 269.679688 C 172.023438 270.183594 165.558594 270.039062 159.066406 267.023438 C 154.367188 264.492188 150.925781 261.53125 148.097656 256.984375 C 145.492188 252.292969 144.699219 248.148438 144.300781 242.851562 L 143.074219 243.734375 C 139.414062 245.984375 136.523438 247.003906 132.253906 247.214844 C 123.710938 247.355469 123.710938 247.355469 120.675781 246.898438 L 119.324219 245.550781 L 120.589844 244.074219 C 121.988281 242.226562 122.683594 240.992188 123.375 238.800781 C 123.523438 236.972656 123.621094 235.1875 123.671875 233.359375 C 123.980469 226.75 124.808594 221.035156 128.269531 215.257812 C 131.066406 211.183594 134.007812 208.449219 138.394531 206.1875 C 140.890625 205.003906 142.992188 204.289062 145.777344 204.332031 M 172.648438 154.425781 C 171.617188 157.296875 170.15625 159.8125 168.558594 162.398438 C 166.007812 166.582031 163.566406 170.820312 161.179688 175.101562 C 160.503906 176.3125 159.828125 177.519531 159.148438 178.726562 L 158.414062 180.515625 L 157.125 182.101562 C 155.101562 182.519531 153.425781 182.710938 151.386719 182.773438 L 149.6875 182.859375 C 148.5 182.914062 147.3125 182.964844 146.125 183.003906 C 144.304688 183.074219 142.488281 183.15625 140.671875 183.253906 C 139.519531 183.304688 138.367188 183.355469 137.210938 183.40625 L 135.5625 183.484375 C 134.203125 183.527344 132.835938 183.496094 131.476562 183.449219 L 129.449219 182.101562 C 129.570312 180.980469 129.570312 180.980469 130.125 179.398438 C 131.234375 178.125 132.398438 176.90625 133.617188 175.734375 L 134.679688 174.6875 C 135.800781 173.582031 136.925781 172.480469 138.054688 171.382812 C 139.175781 170.289062 140.289062 169.195312 141.40625 168.097656 C 142.097656 167.414062 142.792969 166.734375 143.488281 166.058594 C 145.140625 164.445312 146.6875 162.796875 148.148438 161.007812 C 149.699219 159.148438 149.699219 159.148438 151.398438 157.976562 C 154.957031 156.6875 158.582031 156.195312 162.3125 155.648438 L 164.648438 155.285156 C 170.273438 154.425781 170.273438 154.425781 172.648438 154.425781 "/><path style=" stroke:none;fill-rule:nonzero;fill:#4736c1;fill-opacity:1;" d="M 208.425781 192.898438 L 210.449219 192.898438 C 210.105469 195.339844 209.734375 197.777344 209.328125 200.207031 C 209.167969 201.234375 209.023438 202.265625 208.890625 203.296875 C 207.613281 213.183594 207.613281 213.183594 205.636719 216.429688 C 203.714844 218.835938 201.394531 220.722656 198.976562 222.601562 C 198.085938 223.382812 197.199219 224.171875 196.316406 224.960938 L 195.042969 226.039062 C 193.851562 227.089844 192.691406 228.171875 191.5625 229.285156 L 190.480469 230.328125 C 189.769531 231.015625 189.070312 231.707031 188.375 232.410156 C 187.386719 233.359375 187.386719 233.359375 185.476562 234.75 C 183.542969 234.625 183.542969 234.625 182.101562 234.074219 C 181.910156 228.507812 182.210938 223.039062 182.691406 217.496094 L 182.851562 215.523438 L 183.023438 213.652344 L 183.171875 211.980469 C 183.480469 210.28125 183.84375 209.191406 184.800781 207.75 C 186.25 206.660156 186.25 206.660156 188.042969 205.609375 L 190.027344 204.425781 L 192.140625 203.195312 L 198.449219 199.4375 C 201.382812 197.65625 204.199219 195.730469 207 193.75 Z M 208.425781 192.898438 "/><path style=" stroke:none;fill-rule:nonzero;fill:#fdfdfd;fill-opacity:1;" d="M 220.40625 135.988281 C 221.925781 136.199219 221.925781 136.199219 224.203125 137.339844 C 226.066406 138.980469 227.078125 139.972656 228 142.273438 C 228.269531 144.34375 228.28125 146.28125 228 148.351562 C 227.007812 150.527344 225.8125 152.246094 223.949219 153.75 C 222.3125 154.710938 221.023438 155.09375 219.125 155.128906 C 216.566406 154.949219 214.808594 154.601562 212.558594 153.328125 C 210.730469 151.285156 209.890625 149.632812 209.101562 147 C 208.972656 145.066406 209.160156 143.4375 209.773438 141.601562 C 210.976562 139.578125 212.394531 138.003906 214.429688 136.78125 C 216.46875 135.945312 218.222656 135.933594 220.40625 135.988281 "/><path style=" stroke:none;fill-rule:nonzero;fill:#4736c1;fill-opacity:1;" d="M 155.101562 193.574219 C 156.496094 193.292969 156.496094 193.292969 158.476562 193.574219 C 160.222656 194.898438 161.667969 196.484375 163.15625 198.089844 C 163.964844 198.9375 164.769531 199.785156 165.582031 200.628906 L 166.761719 201.867188 C 167.863281 202.964844 169 203.953125 170.207031 204.929688 C 171.976562 206.398438 171.976562 206.398438 172.648438 207.835938 L 172.648438 209.101562 L 171.300781 211.125 C 169.179688 211.535156 169.179688 211.535156 166.574219 211.125 C 164.601562 209.835938 163 208.242188 161.34375 206.570312 L 159.996094 205.269531 C 157.960938 203.289062 155.996094 201.355469 154.425781 198.976562 C 154.257812 196.867188 154.257812 196.867188 154.425781 194.925781 Z M 155.101562 193.574219 "/></g></svg>