<svg xmlns="http://www.w3.org/2000/svg" xmlns:xlink="http://www.w3.org/1999/xlink" width="500" zoomAndPan="magnify" viewBox="0 0 375 374.999991" height="500" preserveAspectRatio="xMidYMid meet" version="1.2"><defs><clipPath id="983e08b159"><path d="M 90 127 L 287 127 L 287 256.929688 L 90 256.929688 Z M 90 127 "/></clipPath></defs><g id="9d2f3bd628"><g clip-rule="nonzero" clip-path="url(#983e08b159)"><path style=" stroke:none;fill-rule:nonzero;fill:#fefefe;fill-opacity:1;" d="M 183.699219 127.796875 L 184.195312 127.792969 C 184.738281 127.789062 185.28125 127.785156 185.824219 127.785156 L 186.957031 127.78125 C 187.75 127.78125 188.542969 127.777344 189.335938 127.777344 C 190.347656 127.777344 191.359375 127.769531 192.371094 127.765625 C 193.152344 127.757812 193.933594 127.757812 194.714844 127.757812 C 195.089844 127.757812 195.460938 127.753906 195.835938 127.753906 C 196.359375 127.75 196.882812 127.75 197.40625 127.75 L 198.308594 127.746094 C 199.296875 127.847656 199.902344 128.082031 200.785156 128.535156 C 201.707031 129.414062 202.097656 130.191406 202.480469 131.390625 C 202.910156 133 203.125 134.660156 203.382812 136.300781 L 203.523438 137.160156 L 203.648438 137.941406 C 203.78125 138.578125 203.78125 138.578125 204.109375 138.996094 C 204.675781 139.394531 205.230469 139.574219 205.890625 139.789062 L 206.726562 140.066406 L 207.171875 140.210938 C 209.839844 141.078125 212.421875 142.042969 214.953125 143.273438 C 215.855469 143.695312 216.628906 144.054688 217.640625 143.980469 C 218.734375 143.753906 219.664062 143.214844 220.617188 142.652344 L 221.171875 142.332031 C 222.421875 141.613281 223.652344 140.855469 224.855469 140.054688 C 225.515625 139.648438 226.035156 139.523438 226.8125 139.449219 C 227.675781 139.523438 227.675781 139.523438 228.359375 139.925781 C 229.042969 140.433594 229.632812 140.953125 230.234375 141.554688 L 230.894531 142.210938 C 231.128906 142.445312 231.363281 142.679688 231.59375 142.914062 L 232.324219 143.640625 C 232.828125 144.144531 233.335938 144.652344 233.839844 145.160156 C 234.488281 145.808594 235.136719 146.457031 235.785156 147.101562 C 236.285156 147.601562 236.785156 148.101562 237.285156 148.601562 C 237.523438 148.839844 237.761719 149.078125 238 149.316406 C 238.335938 149.652344 238.667969 149.984375 239.003906 150.320312 L 239.574219 150.894531 C 240.191406 151.585938 240.640625 152.28125 240.972656 153.144531 C 241.019531 154.136719 240.675781 154.976562 240.300781 155.890625 C 239.925781 156.601562 239.496094 157.273438 239.058594 157.949219 C 238.292969 159.175781 237.53125 160.398438 236.851562 161.675781 L 236.519531 162.300781 C 236.285156 162.910156 236.285156 162.910156 236.363281 163.59375 C 236.585938 164.402344 236.921875 165.003906 237.351562 165.722656 C 238.527344 167.792969 239.300781 170.027344 240.101562 172.257812 L 240.414062 173.121094 L 240.691406 173.894531 C 241.027344 174.644531 241.371094 175.171875 241.9375 175.761719 C 242.4375 176.027344 242.4375 176.027344 242.988281 176.144531 L 243.609375 176.308594 L 244.277344 176.464844 L 244.964844 176.632812 C 245.929688 176.863281 246.898438 177.085938 247.863281 177.300781 C 249.339844 177.652344 250.382812 178.027344 251.527344 179.035156 C 251.796875 179.433594 251.796875 179.433594 251.992188 179.972656 C 252.039062 180.5625 252.058594 181.125 252.058594 181.710938 L 252.0625 182.238281 C 252.066406 182.8125 252.066406 183.386719 252.0625 183.960938 L 252.066406 185.160156 C 252.070312 185.996094 252.070312 186.832031 252.066406 187.671875 C 252.066406 188.742188 252.070312 189.8125 252.074219 190.886719 C 252.078125 191.710938 252.078125 192.535156 252.078125 193.359375 C 252.078125 193.753906 252.082031 194.152344 252.082031 194.546875 C 252.085938 195.097656 252.082031 195.652344 252.082031 196.203125 L 252.085938 196.699219 C 252.078125 197.445312 252 197.960938 251.671875 198.636719 C 251.210938 199.25 250.761719 199.652344 250.125 200.078125 C 249.464844 200.335938 249.464844 200.335938 248.71875 200.53125 L 247.859375 200.765625 C 247.105469 200.957031 246.34375 201.128906 245.585938 201.292969 L 244.921875 201.4375 C 244.492188 201.535156 244.058594 201.625 243.621094 201.714844 C 242.691406 201.917969 242.046875 202.109375 241.261719 202.667969 C 240.613281 203.570312 240.28125 204.484375 239.921875 205.53125 C 239.128906 207.75 238.1875 209.867188 237.148438 211.984375 C 236.695312 212.929688 236.347656 213.71875 236.203125 214.757812 C 236.351562 215.667969 236.65625 216.257812 237.132812 217.042969 L 237.382812 217.464844 C 238.097656 218.652344 238.847656 219.820312 239.609375 220.976562 C 240.742188 222.707031 240.742188 222.707031 240.859375 223.898438 C 240.878906 224.347656 240.878906 224.347656 240.769531 224.863281 C 240.175781 225.832031 239.523438 226.636719 238.722656 227.445312 L 238.398438 227.773438 C 238.050781 228.128906 237.699219 228.480469 237.34375 228.832031 L 236.605469 229.578125 C 236.089844 230.09375 235.574219 230.613281 235.058594 231.128906 C 234.398438 231.789062 233.742188 232.449219 233.085938 233.113281 C 232.578125 233.625 232.070312 234.136719 231.558594 234.644531 C 231.316406 234.890625 231.074219 235.132812 230.832031 235.378906 C 230.496094 235.722656 230.15625 236.0625 229.8125 236.402344 L 229.226562 236.988281 C 228.492188 237.585938 227.863281 237.863281 226.972656 238.191406 C 225.859375 238.246094 224.878906 237.839844 223.886719 237.355469 C 223.074219 236.90625 222.273438 236.433594 221.480469 235.953125 L 220.644531 235.460938 C 220.136719 235.160156 219.632812 234.859375 219.128906 234.554688 C 218.425781 234.136719 218.121094 233.984375 217.292969 233.894531 C 215.910156 233.914062 214.769531 234.550781 213.542969 235.136719 C 211.207031 236.214844 208.816406 237.152344 206.371094 237.957031 L 205.667969 238.195312 L 205.050781 238.398438 C 204.511719 238.628906 204.511719 238.628906 204.125 239.050781 C 203.722656 239.773438 203.617188 240.4375 203.480469 241.253906 L 203.308594 242.242188 C 203.222656 242.757812 203.136719 243.273438 203.054688 243.789062 C 202.449219 247.398438 202.449219 247.398438 201.488281 248.945312 C 200.925781 249.472656 200.585938 249.636719 199.847656 249.878906 C 199.277344 249.90625 198.710938 249.917969 198.140625 249.921875 L 197.613281 249.925781 C 197.039062 249.929688 196.464844 249.933594 195.890625 249.933594 L 195.296875 249.9375 C 194.257812 249.941406 193.21875 249.945312 192.179688 249.949219 C 191.109375 249.953125 190.039062 249.957031 188.964844 249.96875 C 188.140625 249.976562 187.316406 249.976562 186.492188 249.976562 C 186.097656 249.980469 185.699219 249.980469 185.304688 249.984375 C 184.753906 249.992188 184.199219 249.992188 183.644531 249.988281 L 183.152344 250 C 182.285156 249.988281 181.816406 249.863281 181.054688 249.429688 C 180.171875 248.734375 179.710938 248.105469 179.273438 247.074219 C 178.917969 245.816406 178.660156 244.542969 178.410156 243.261719 C 178.308594 242.746094 178.203125 242.230469 178.097656 241.71875 C 178.003906 241.253906 177.910156 240.792969 177.820312 240.328125 C 177.671875 239.5625 177.671875 239.5625 177.167969 238.890625 C 176.648438 238.644531 176.121094 238.421875 175.582031 238.222656 L 175.097656 238.035156 C 174.582031 237.835938 174.0625 237.640625 173.542969 237.445312 C 172.835938 237.175781 172.132812 236.902344 171.425781 236.628906 L 170.902344 236.425781 C 169.402344 235.84375 167.929688 235.199219 166.492188 234.472656 C 165.746094 234.113281 165.242188 233.980469 164.410156 234.007812 C 163.5625 234.226562 162.863281 234.515625 162.085938 234.917969 L 161.664062 235.128906 C 160.734375 235.613281 159.84375 236.148438 158.957031 236.707031 C 156.777344 238.078125 156.777344 238.078125 155.640625 238.25 C 154.636719 238.183594 154.175781 237.988281 153.316406 237.488281 C 152.6875 236.945312 152.6875 236.945312 152.046875 236.300781 L 151.6875 235.941406 C 151.296875 235.554688 150.914062 235.167969 150.527344 234.777344 L 149.71875 233.964844 C 149.152344 233.398438 148.589844 232.832031 148.027344 232.265625 C 147.308594 231.539062 146.585938 230.8125 145.859375 230.089844 C 145.304688 229.53125 144.746094 228.972656 144.191406 228.414062 L 143.390625 227.609375 C 143.019531 227.238281 142.648438 226.863281 142.277344 226.488281 L 141.636719 225.84375 C 141.15625 225.332031 141.15625 225.332031 140.921875 224.863281 C 140.808594 223.828125 140.773438 223.109375 141.1875 222.144531 C 141.554688 221.488281 141.949219 220.851562 142.355469 220.214844 C 142.625 219.785156 142.894531 219.351562 143.160156 218.917969 L 143.5625 218.269531 C 144.792969 216.347656 144.792969 216.347656 145.53125 214.21875 C 145.285156 213.003906 144.714844 212.023438 144.109375 210.953125 C 142.933594 208.804688 141.917969 206.636719 141.035156 204.351562 C 140.792969 203.757812 140.550781 203.203125 140.222656 202.652344 C 139.164062 201.867188 137.824219 201.671875 136.554688 201.378906 C 132.394531 200.378906 132.394531 200.378906 130.867188 199.390625 C 130.351562 198.859375 130.03125 198.410156 129.699219 197.742188 C 129.609375 196.945312 129.609375 196.945312 129.605469 196.019531 L 129.601562 195.507812 C 129.597656 194.953125 129.597656 194.398438 129.597656 193.839844 L 129.59375 192.675781 C 129.59375 191.863281 129.59375 191.050781 129.59375 190.238281 C 129.597656 189.199219 129.59375 188.160156 129.585938 187.121094 C 129.582031 186.316406 129.582031 185.515625 129.582031 184.714844 C 129.582031 184.332031 129.582031 183.949219 129.578125 183.566406 C 129.574219 183.03125 129.578125 182.492188 129.582031 181.957031 L 129.582031 181.03125 C 129.699219 180.207031 129.699219 180.207031 130.136719 179.425781 C 130.722656 178.691406 131.207031 178.3125 132.039062 177.867188 C 132.816406 177.585938 133.605469 177.367188 134.40625 177.152344 L 135.066406 176.96875 C 136.433594 176.589844 137.804688 176.25 139.199219 175.980469 C 140.003906 175.664062 140.378906 175.269531 140.925781 174.59375 C 141.261719 173.902344 141.507812 173.1875 141.757812 172.460938 C 142.296875 170.949219 142.878906 169.472656 143.546875 168.015625 L 143.742188 167.589844 C 144.0625 166.894531 144.386719 166.203125 144.71875 165.511719 C 145.1875 164.5 145.578125 163.644531 145.671875 162.53125 C 145.191406 161.277344 144.4375 160.25 143.65625 159.164062 C 141.050781 155.476562 141.050781 155.476562 140.773438 154.351562 C 140.761719 153.738281 140.789062 153.214844 140.925781 152.617188 C 141.359375 151.875 141.9375 151.332031 142.5625 150.746094 C 142.886719 150.421875 143.210938 150.097656 143.535156 149.769531 C 143.761719 149.546875 143.988281 149.320312 144.21875 149.09375 C 144.761719 148.554688 145.285156 148.015625 145.761719 147.414062 C 146.199219 146.894531 146.597656 146.503906 147.113281 146.070312 C 148.484375 144.886719 149.734375 143.582031 151 142.285156 C 151.320312 141.960938 151.640625 141.632812 151.960938 141.308594 L 152.53125 140.730469 C 153.078125 140.230469 153.589844 139.863281 154.253906 139.523438 C 154.996094 139.40625 155.40625 139.378906 156.125 139.523438 C 158.078125 140.28125 159.847656 141.46875 161.636719 142.550781 C 163.238281 143.558594 163.238281 143.558594 165.042969 144.050781 C 166.226562 143.941406 167.0625 143.492188 168.105469 142.945312 C 170.378906 141.796875 172.699219 140.914062 175.109375 140.105469 L 175.890625 139.832031 L 176.585938 139.601562 C 177.195312 139.324219 177.195312 139.324219 177.578125 138.777344 C 177.925781 137.992188 178.078125 137.265625 178.21875 136.417969 L 178.308594 135.929688 C 178.398438 135.417969 178.484375 134.90625 178.570312 134.394531 C 178.6875 133.71875 178.800781 133.046875 178.921875 132.371094 L 179.074219 131.46875 C 179.3125 130.476562 179.632812 129.613281 180.324219 128.851562 C 181.496094 127.9375 182.234375 127.804688 183.699219 127.796875 M 174.363281 154.953125 L 173.570312 155.339844 C 167.769531 158.320312 162.757812 163.019531 159.191406 168.449219 C 155.703125 173.9375 153.605469 180.144531 153.289062 186.660156 C 153.074219 193.960938 154.554688 201.121094 158.007812 207.605469 C 158.265625 208.140625 158.265625 208.140625 158.695312 208.496094 C 159.460938 208.75 159.460938 208.75 160.332031 208.730469 C 160.957031 208.535156 161.476562 208.335938 162.054688 208.058594 L 162.542969 207.835938 C 163.054688 207.59375 163.566406 207.347656 164.074219 207.09375 L 164.589844 206.839844 C 166.777344 205.742188 168.855469 204.539062 170.855469 203.117188 L 171.324219 202.789062 C 174.765625 200.371094 178.042969 197.789062 181.144531 194.9375 C 181.507812 194.609375 181.875 194.28125 182.238281 193.957031 C 185.644531 190.882812 188.90625 187.675781 192.148438 184.429688 C 192.8125 183.761719 193.480469 183.097656 194.148438 182.433594 C 194.664062 181.917969 195.179688 181.402344 195.695312 180.886719 C 195.941406 180.640625 196.1875 180.394531 196.433594 180.148438 C 196.773438 179.808594 197.109375 179.46875 197.449219 179.128906 L 198.035156 178.542969 L 198.445312 178.101562 L 198.445312 177.867188 C 197.601562 177.675781 196.816406 177.605469 195.949219 177.601562 L 195.160156 177.597656 L 194.3125 177.59375 L 192.527344 177.574219 C 191.59375 177.566406 190.65625 177.5625 189.71875 177.558594 C 188.816406 177.554688 187.910156 177.542969 187.007812 177.535156 L 186.164062 177.535156 C 184.96875 177.519531 183.949219 177.484375 182.859375 176.96875 C 182.007812 176.417969 181.617188 175.953125 181.144531 175.0625 C 180.824219 174.101562 180.800781 173.261719 180.910156 172.257812 C 181.09375 171.507812 181.363281 170.984375 181.84375 170.386719 C 182.746094 169.757812 183.710938 169.300781 184.792969 169.109375 C 185.445312 169.070312 186.085938 169.0625 186.738281 169.074219 L 187.476562 169.070312 C 188.273438 169.066406 189.070312 169.070312 189.871094 169.078125 C 190.429688 169.078125 190.984375 169.078125 191.542969 169.078125 C 192.710938 169.078125 193.878906 169.082031 195.046875 169.089844 C 196.539062 169.101562 198.03125 169.101562 199.527344 169.097656 C 200.679688 169.097656 201.828125 169.101562 202.980469 169.105469 C 203.53125 169.105469 204.082031 169.105469 204.632812 169.105469 C 205.402344 169.109375 206.171875 169.113281 206.941406 169.117188 L 207.628906 169.117188 C 209.011719 169.132812 210.046875 169.332031 211.308594 169.917969 C 212.25 170.796875 212.644531 171.613281 213.035156 172.832031 C 213.285156 173.859375 213.277344 174.871094 213.269531 175.925781 L 213.273438 176.65625 C 213.277344 177.449219 213.273438 178.238281 213.269531 179.03125 C 213.269531 179.582031 213.273438 180.136719 213.273438 180.6875 C 213.273438 181.84375 213.273438 183 213.269531 184.15625 C 213.265625 185.636719 213.269531 187.113281 213.273438 188.59375 C 213.273438 189.734375 213.273438 190.875 213.273438 192.015625 C 213.269531 192.5625 213.273438 193.105469 213.273438 193.652344 C 213.277344 194.414062 213.273438 195.175781 213.269531 195.941406 L 213.273438 196.617188 C 213.261719 198.011719 213.097656 199.28125 212.476562 200.546875 C 212.039062 201.0625 211.652344 201.335938 211.074219 201.714844 C 210.066406 202.03125 209.078125 202.070312 208.035156 201.949219 C 207.320312 201.742188 206.730469 201.5 206.164062 201.015625 C 205.71875 200.441406 205.46875 200.050781 205.226562 199.378906 C 205.085938 198.21875 205.085938 197.058594 205.085938 195.894531 C 205.082031 195.554688 205.078125 195.21875 205.074219 194.878906 C 205.0625 193.992188 205.058594 193.105469 205.054688 192.21875 C 205.050781 191.316406 205.039062 190.410156 205.03125 189.503906 C 205.015625 187.730469 205.003906 185.953125 204.992188 184.179688 C 204.035156 184.621094 203.378906 185.265625 202.644531 186.007812 L 202.234375 186.417969 C 201.949219 186.703125 201.664062 186.992188 201.378906 187.277344 C 200.949219 187.710938 200.519531 188.144531 200.085938 188.574219 L 199.253906 189.414062 L 198.867188 189.796875 C 198.234375 190.4375 197.628906 191.089844 197.046875 191.777344 C 195.828125 193.183594 194.488281 194.476562 193.171875 195.785156 C 192.671875 196.28125 192.175781 196.777344 191.675781 197.273438 C 190.441406 198.503906 189.207031 199.734375 187.972656 200.964844 C 186.925781 202.007812 185.878906 203.046875 184.832031 204.089844 C 184.347656 204.578125 183.859375 205.0625 183.371094 205.546875 C 181.421875 207.480469 181.421875 207.480469 179.589844 209.53125 C 178.96875 210.253906 178.261719 210.902344 177.578125 211.566406 C 175.96875 213.144531 174.507812 214.851562 173.191406 216.679688 L 172.714844 217.339844 C 172.242188 218.046875 171.855469 218.675781 171.691406 219.519531 C 171.703125 220.0625 171.785156 220.398438 172.023438 220.886719 C 173.222656 222.507812 175.304688 223.378906 177.105469 224.175781 C 182.984375 226.617188 189.546875 227.304688 195.84375 226.496094 C 202.464844 225.539062 208.929688 222.90625 214.199219 218.769531 C 214.5625 218.464844 214.925781 218.160156 215.28125 217.847656 L 215.863281 217.347656 C 216.457031 216.820312 217.042969 216.285156 217.621094 215.746094 L 218.207031 215.199219 C 222.589844 210.964844 225.710938 205.4375 227.441406 199.613281 C 227.808594 198.296875 228.109375 196.972656 228.378906 195.636719 L 228.539062 194.882812 C 229.636719 188.726562 228.742188 182.175781 226.707031 176.3125 C 225.164062 172.082031 222.960938 168.144531 219.960938 164.773438 L 219.425781 164.164062 C 218.910156 163.582031 218.386719 163.007812 217.855469 162.4375 L 217.445312 161.980469 C 213.320312 157.589844 207.609375 154.488281 201.902344 152.699219 C 192.71875 149.988281 182.953125 150.769531 174.363281 154.953125 M 173.191406 306.929688 L 178.570312 306.929688 C 179.273438 308.585938 179.949219 310.253906 180.589844 311.9375 L 180.816406 312.527344 C 181.125 313.34375 181.433594 314.15625 181.742188 314.96875 C 181.972656 315.570312 182.199219 316.171875 182.429688 316.773438 L 182.636719 317.320312 C 183.085938 318.496094 183.605469 319.605469 184.183594 320.722656 C 185.726562 316.980469 187.230469 313.222656 188.671875 309.441406 L 188.847656 308.984375 C 189.003906 308.574219 189.160156 308.164062 189.316406 307.753906 C 189.5625 307.164062 189.5625 307.164062 189.792969 306.929688 L 194.9375 306.929688 L 194.9375 326.800781 L 190.730469 326.800781 L 190.730469 314.175781 L 189.589844 317.214844 C 188.402344 320.363281 187.136719 323.472656 185.820312 326.566406 L 182.3125 326.566406 L 181.910156 325.554688 L 178.886719 317.914062 L 178.597656 317.1875 L 178.332031 316.507812 L 178.09375 315.914062 L 177.871094 315.34375 L 177.636719 314.703125 L 177.402344 314.175781 L 176.933594 313.941406 L 177.167969 314.410156 C 177.195312 314.804688 177.210938 315.203125 177.214844 315.601562 L 177.230469 316.351562 L 177.242188 317.167969 L 177.257812 317.996094 C 177.273438 318.878906 177.285156 319.757812 177.300781 320.636719 L 177.328125 322.421875 C 177.355469 323.878906 177.378906 325.339844 177.402344 326.800781 C 176.742188 326.808594 176.085938 326.8125 175.429688 326.816406 L 174.859375 326.824219 C 174.382812 326.824219 173.902344 326.8125 173.425781 326.800781 L 173.191406 326.566406 C 173.171875 325.957031 173.164062 325.347656 173.164062 324.738281 L 173.164062 324.15625 C 173.164062 323.523438 173.167969 322.886719 173.167969 322.25 L 173.171875 320.929688 C 173.171875 319.769531 173.171875 318.609375 173.175781 317.449219 C 173.179688 316.265625 173.179688 315.082031 173.179688 313.898438 C 173.183594 311.574219 173.1875 309.25 173.191406 306.929688 M 187.457031 277.46875 L 191.664062 277.46875 C 192.605469 278.34375 192.984375 278.8125 193.550781 279.894531 C 193.855469 280.40625 194.15625 280.917969 194.460938 281.429688 C 194.617188 281.703125 194.769531 281.972656 194.921875 282.246094 C 195.660156 283.535156 196.484375 284.769531 197.304688 286.011719 C 197.566406 286.40625 197.820312 286.800781 198.078125 287.199219 L 198.550781 287.933594 L 198.96875 288.585938 C 199.375 289.152344 199.808594 289.617188 200.316406 290.09375 L 200.296875 289.386719 C 200.269531 288.503906 200.242188 287.617188 200.21875 286.730469 C 200.207031 286.351562 200.195312 285.96875 200.183594 285.589844 C 200.101562 282.882812 200.074219 280.179688 200.082031 277.46875 L 204.292969 277.46875 L 204.292969 297.34375 L 200.082031 297.34375 C 199.203125 296.523438 198.90625 296.148438 198.417969 295.121094 C 198.15625 294.648438 197.894531 294.179688 197.632812 293.707031 L 197.234375 292.960938 C 196.507812 291.65625 195.660156 290.4375 194.820312 289.203125 C 194.515625 288.75 194.210938 288.292969 193.910156 287.839844 L 193.519531 287.257812 C 192.898438 286.335938 192.28125 285.410156 191.664062 284.484375 L 191.667969 284.960938 C 191.671875 286.59375 191.675781 288.230469 191.679688 289.863281 C 191.679688 290.476562 191.679688 291.085938 191.683594 291.695312 C 191.6875 292.574219 191.6875 293.449219 191.6875 294.324219 L 191.691406 295.15625 L 191.691406 295.921875 L 191.695312 296.601562 L 191.664062 297.109375 L 191.429688 297.34375 L 187.457031 297.34375 Z M 269.53125 306.929688 L 273.742188 306.929688 C 274.679688 307.800781 275.058594 308.269531 275.625 309.355469 C 275.929688 309.867188 276.230469 310.378906 276.535156 310.890625 C 276.6875 311.160156 276.84375 311.433594 276.996094 311.703125 C 277.738281 313.003906 278.578125 314.238281 279.40625 315.484375 C 279.832031 316.125 280.253906 316.773438 280.671875 317.417969 C 281.085938 318.054688 281.503906 318.6875 281.925781 319.320312 L 282.160156 306.929688 L 286.132812 306.929688 L 286.132812 326.800781 L 282.160156 326.800781 C 281.355469 326.109375 281.125 325.832031 280.695312 324.929688 C 280.457031 324.507812 280.21875 324.082031 279.976562 323.660156 L 279.582031 322.933594 C 278.742188 321.46875 277.796875 320.066406 276.867188 318.65625 C 276.535156 318.15625 276.207031 317.652344 275.882812 317.148438 L 275.265625 316.207031 L 274.984375 315.769531 C 274.476562 315 273.953125 314.335938 273.273438 313.707031 L 273.507812 314.175781 C 273.535156 314.574219 273.546875 314.96875 273.554688 315.367188 L 273.570312 316.117188 L 273.582031 316.933594 L 273.59375 317.765625 C 273.609375 318.644531 273.625 319.523438 273.636719 320.402344 L 273.667969 322.1875 C 273.695312 323.648438 273.71875 325.109375 273.742188 326.566406 L 269.53125 326.800781 Z M 120.347656 277.46875 C 129.699219 277.46875 129.699219 277.46875 132.273438 278.402344 C 133.78125 279.890625 133.78125 279.890625 134.144531 280.976562 C 134.355469 283.796875 134.355469 283.796875 133.75 285.082031 C 132.613281 286.277344 132.613281 286.277344 132.039062 286.820312 L 132.464844 287.070312 C 134.183594 288.132812 134.183594 288.132812 134.726562 289 C 135.214844 290.195312 135.390625 291.230469 135.253906 292.515625 C 135.035156 293.683594 134.667969 294.539062 133.910156 295.472656 C 133.019531 296.335938 132.050781 296.789062 130.867188 297.109375 C 127.394531 297.605469 123.855469 297.34375 120.347656 297.34375 Z M 124.089844 280.742188 L 124.089844 285.417969 L 126.351562 285.460938 L 127.0625 285.480469 C 127.984375 285.488281 128.632812 285.476562 129.484375 285.09375 C 129.957031 284.746094 129.957031 284.746094 130.167969 284.25 C 130.203125 283.828125 130.21875 283.402344 130.226562 282.976562 L 130.246094 282.292969 C 130.21875 281.675781 130.21875 281.675781 129.855469 281.261719 C 129.441406 280.929688 129.441406 280.929688 128.765625 280.742188 C 128.402344 280.722656 128.035156 280.714844 127.671875 280.71875 L 127.101562 280.722656 L 126.382812 280.726562 Z M 124.320312 288.457031 L 124.089844 288.691406 C 124.070312 289.074219 124.0625 289.457031 124.066406 289.839844 L 124.066406 290.539062 L 124.074219 291.277344 L 124.078125 292.019531 C 124.078125 292.625 124.082031 293.230469 124.089844 293.835938 C 125 293.863281 125.910156 293.878906 126.820312 293.894531 L 127.601562 293.917969 C 128.3125 293.925781 128.996094 293.921875 129.699219 293.835938 C 130.449219 293.449219 130.449219 293.449219 130.867188 292.898438 C 131.230469 292.175781 131.179688 291.472656 131.167969 290.675781 C 131.132812 290.050781 131.132812 290.050781 130.738281 289.394531 C 130.046875 288.824219 129.394531 288.621094 128.53125 288.457031 C 127.796875 288.402344 127.074219 288.402344 126.339844 288.414062 L 125.757812 288.414062 C 125.277344 288.417969 124.800781 288.4375 124.320312 288.457031 M 163.066406 306.921875 C 164.546875 307.585938 165.796875 308.289062 166.851562 309.542969 C 167.84375 310.925781 168.386719 312.523438 168.75 314.175781 C 168.960938 316.933594 168.929688 319.734375 167.761719 322.28125 C 166.960938 323.757812 165.921875 324.90625 164.539062 325.867188 C 162.5625 326.882812 160.65625 327.144531 158.445312 327.101562 C 156.882812 326.992188 155.53125 326.574219 154.179688 325.785156 C 152.789062 324.804688 151.671875 323.613281 150.921875 322.082031 C 149.84375 319.433594 149.828125 316.460938 150.203125 313.664062 C 150.523438 311.96875 151.234375 310.628906 152.191406 309.207031 C 153.492188 307.9375 155.085938 307.035156 156.847656 306.570312 C 158.878906 306.242188 161.117188 306.210938 163.066406 306.921875 M 155.949219 311.0625 C 155.082031 311.953125 154.640625 313.011719 154.253906 314.175781 C 154.191406 314.925781 154.199219 315.675781 154.195312 316.425781 L 154.179688 317.039062 C 154.171875 318.460938 154.375 319.652344 154.953125 320.957031 C 155.25 321.488281 155.25 321.488281 155.609375 321.863281 L 155.9375 322.242188 C 156.511719 322.722656 157.066406 323.007812 157.757812 323.292969 C 159.050781 323.472656 160.394531 323.53125 161.628906 323.074219 C 162.722656 322.421875 163.453125 321.585938 164.117188 320.503906 C 164.816406 318.722656 164.667969 316.53125 164.539062 314.644531 C 164.351562 313.445312 163.988281 312.550781 163.355469 311.515625 C 162.433594 310.691406 161.519531 310.289062 160.332031 309.96875 C 158.699219 309.703125 157.316406 310.222656 155.949219 311.0625 M 259.359375 306.722656 C 260.863281 307.269531 262.179688 308.144531 263.277344 309.308594 C 264.222656 310.496094 264.898438 311.929688 265.234375 313.40625 C 265.546875 316.105469 265.617188 318.933594 264.667969 321.503906 C 263.929688 323.144531 262.984375 324.488281 261.582031 325.632812 C 260.117188 326.59375 258.558594 326.972656 256.828125 327.085938 C 254.5625 327.144531 252.800781 326.804688 250.796875 325.75 C 249.4375 324.886719 248.578125 323.746094 247.785156 322.359375 C 246.617188 319.777344 246.398438 317.210938 246.617188 314.410156 C 246.839844 312.863281 247.292969 311.386719 248.195312 310.097656 C 248.4375 309.8125 248.691406 309.535156 248.953125 309.265625 L 249.378906 308.824219 C 250.503906 307.746094 251.683594 307.164062 253.164062 306.695312 L 253.582031 306.558594 C 255.378906 306.222656 257.589844 306.25 259.359375 306.722656 M 253.164062 310.667969 C 252.25 311.449219 251.535156 312.347656 251.074219 313.460938 C 250.554688 315.328125 250.582031 317.507812 250.996094 319.398438 C 251.425781 320.675781 251.953125 321.664062 252.929688 322.59375 C 253.699219 323.058594 254.273438 323.289062 255.171875 323.40625 C 256.835938 323.4375 256.835938 323.4375 258.449219 323.082031 C 259.226562 322.628906 259.699219 322.140625 260.265625 321.4375 C 261.109375 319.851562 261.207031 318.457031 261.214844 316.691406 L 261.238281 315.992188 C 261.25 314.496094 260.988281 313.421875 260.289062 312.101562 C 259.710938 311.269531 258.960938 310.679688 258.074219 310.203125 C 256.460938 309.683594 254.621094 309.785156 253.164062 310.667969 M 237.261719 277.703125 C 238.453125 278.261719 239.507812 278.867188 240.300781 279.9375 C 241.230469 281.535156 241.230469 281.535156 241.246094 282.53125 L 241.238281 283.082031 C 240.59375 283.117188 239.953125 283.144531 239.308594 283.167969 L 238.757812 283.203125 C 238.226562 283.21875 237.777344 283.210938 237.261719 283.082031 C 236.699219 282.398438 236.699219 282.398438 236.328125 281.675781 C 235.789062 281.230469 235.351562 281.019531 234.671875 280.867188 C 233.765625 280.730469 233.058594 280.742188 232.148438 280.902344 C 231.425781 281.160156 231.425781 281.160156 230.964844 281.605469 C 230.671875 282.171875 230.671875 282.171875 230.597656 282.964844 L 230.714844 283.78125 C 231.238281 284.375 231.753906 284.671875 232.5 284.929688 C 233.25 285.144531 234.003906 285.34375 234.761719 285.535156 C 238.855469 286.582031 238.855469 286.582031 239.957031 287.625 C 240.492188 288.242188 240.941406 288.867188 241.238281 289.625 C 241.382812 291.1875 241.53125 292.996094 240.871094 294.449219 C 240.300781 295.359375 239.5625 296.058594 238.664062 296.640625 C 236.683594 297.640625 234.53125 297.679688 232.351562 297.578125 C 230.75 297.433594 229.523438 296.949219 228.171875 296.074219 C 227.328125 295.449219 226.871094 294.753906 226.332031 293.863281 C 225.996094 293.027344 226.019531 292.390625 226.039062 291.496094 C 228.871094 291.273438 228.871094 291.273438 230.015625 291.496094 C 230.496094 291.898438 230.496094 291.898438 230.773438 292.402344 L 230.953125 292.914062 L 231.183594 293.367188 C 232.246094 293.953125 233.28125 293.914062 234.464844 293.898438 C 235.394531 293.816406 235.992188 293.597656 236.796875 293.132812 C 237.101562 292.515625 237.082031 291.9375 237.105469 291.257812 C 237.058594 290.789062 237.058594 290.789062 236.78125 290.421875 C 236.117188 289.941406 235.382812 289.75 234.601562 289.523438 L 234.097656 289.371094 C 233.3125 289.136719 232.527344 288.910156 231.738281 288.691406 C 230.121094 288.234375 228.710938 287.726562 227.441406 286.585938 C 226.886719 285.945312 226.589844 285.289062 226.382812 284.460938 C 226.167969 283.097656 226.328125 281.820312 226.738281 280.507812 C 227.25 279.503906 227.875 278.808594 228.804688 278.195312 C 231.265625 276.945312 234.667969 276.738281 237.261719 277.703125 M 256.671875 277.9375 C 257.839844 278.574219 258.75 279.429688 259.484375 280.539062 C 259.875 281.292969 260.035156 282.011719 260.179688 282.847656 L 259.945312 283.082031 C 259.273438 283.097656 258.613281 283.101562 257.941406 283.09375 L 257.371094 283.089844 C 256.902344 283.089844 256.4375 283.085938 255.96875 283.082031 L 255.5625 282.292969 C 255.25 281.75 255.082031 281.476562 254.554688 281.121094 C 253.425781 280.792969 252.464844 280.660156 251.296875 280.859375 C 250.78125 280.980469 250.78125 280.980469 250.125 281.222656 C 249.640625 281.628906 249.640625 281.628906 249.492188 282.097656 C 249.34375 282.820312 249.34375 282.820312 249.421875 283.546875 C 249.894531 284.195312 249.894531 284.195312 250.589844 284.71875 C 251.378906 285.03125 251.378906 285.03125 252.242188 285.214844 L 252.707031 285.328125 C 253.429688 285.503906 254.152344 285.664062 254.878906 285.816406 C 256.476562 286.171875 257.78125 286.636719 259.007812 287.757812 C 259.617188 288.535156 259.980469 289.359375 260.179688 290.328125 C 260.3125 291.570312 260.238281 292.695312 259.828125 293.878906 C 259.363281 294.921875 258.769531 295.609375 257.875 296.3125 C 256.628906 297.125 255.339844 297.449219 253.863281 297.578125 C 251.824219 297.675781 249.871094 297.550781 247.976562 296.730469 C 246.644531 296.007812 245.78125 294.839844 244.992188 293.574219 C 244.71875 292.832031 244.726562 292.277344 244.746094 291.496094 C 245.394531 291.464844 246.039062 291.441406 246.6875 291.425781 L 247.246094 291.394531 C 247.761719 291.382812 248.214844 291.386719 248.71875 291.496094 C 249.199219 292.058594 249.199219 292.058594 249.421875 292.667969 L 249.421875 293.132812 C 250.644531 293.652344 251.835938 293.976562 253.164062 294.070312 C 253.941406 293.960938 254.585938 293.757812 255.269531 293.367188 C 255.804688 292.875 255.804688 292.875 255.96875 292.199219 C 255.988281 291.351562 255.988281 291.351562 255.734375 290.5625 C 255.054688 289.921875 254.390625 289.699219 253.496094 289.46875 L 252.730469 289.261719 L 251.9375 289.058594 C 247.90625 288.011719 247.90625 288.011719 246.609375 286.871094 L 246.292969 286.46875 L 245.96875 286.070312 C 245.46875 285.347656 245.230469 284.863281 245.132812 283.976562 C 245.105469 281.4375 245.105469 281.4375 245.578125 280.390625 C 246.144531 279.460938 246.886719 278.777344 247.785156 278.171875 C 250.46875 276.78125 253.875 276.882812 256.671875 277.9375 M 170.632812 277.859375 C 171.683594 278.332031 172.457031 278.917969 173.191406 279.808594 C 173.601562 280.40625 173.929688 280.980469 174.128906 281.675781 L 174.128906 283.082031 L 170.152344 283.082031 L 169.453125 281.675781 C 168.726562 281.199219 168.101562 280.988281 167.257812 280.785156 C 166.214844 280.730469 165.53125 280.878906 164.539062 281.210938 C 164.066406 281.46875 164.066406 281.46875 163.839844 281.910156 C 163.625 282.59375 163.625 282.59375 163.605469 283.3125 C 163.761719 283.8125 163.761719 283.8125 164.074219 284.25 C 165.558594 285.191406 167.535156 285.5 169.226562 285.902344 C 170.480469 286.210938 171.628906 286.597656 172.726562 287.289062 C 173.207031 287.765625 173.207031 287.765625 173.527344 288.238281 L 173.863281 288.714844 C 174.394531 289.609375 174.414062 290.40625 174.433594 291.425781 C 174.414062 293.269531 174.414062 293.269531 174.011719 294.171875 C 173.394531 295.179688 172.546875 296 171.554688 296.640625 C 169.992188 297.382812 168.621094 297.457031 166.910156 297.445312 L 166.183594 297.457031 C 164.519531 297.457031 163.222656 297.152344 161.734375 296.40625 C 160.644531 295.761719 160.089844 294.820312 159.429688 293.773438 C 159.164062 293.132812 159.164062 293.132812 159.164062 291.496094 L 163.136719 291.496094 L 164.074219 293.132812 C 164.875 293.640625 165.402344 293.804688 166.339844 293.898438 C 167.367188 293.933594 168.144531 293.886719 169.117188 293.527344 C 169.738281 293.148438 169.738281 293.148438 170.152344 292.433594 C 170.289062 291.625 170.289062 291.625 170.152344 290.796875 C 169.65625 290.273438 169.195312 289.9375 168.511719 289.691406 C 167.960938 289.539062 167.40625 289.40625 166.851562 289.277344 C 166.449219 289.175781 166.050781 289.074219 165.652344 288.972656 L 165.070312 288.828125 C 163.285156 288.367188 161.8125 287.851562 160.472656 286.546875 C 159.886719 285.875 159.625 285.347656 159.398438 284.484375 C 159.277344 283.230469 159.210938 281.960938 159.675781 280.769531 C 160.226562 279.816406 160.75 278.984375 161.683594 278.359375 C 164.464844 276.863281 167.683594 276.847656 170.632812 277.859375 M 111.929688 306.929688 L 116.136719 306.929688 L 116.152344 308.058594 C 116.167969 309.445312 116.191406 310.832031 116.210938 312.21875 C 116.222656 312.820312 116.230469 313.417969 116.234375 314.019531 C 116.246094 314.882812 116.261719 315.746094 116.273438 316.609375 L 116.28125 317.417969 C 116.308594 318.828125 116.40625 320.078125 116.839844 321.425781 C 117.238281 322.039062 117.566406 322.457031 118.179688 322.855469 C 118.875 323.125 119.46875 323.132812 120.214844 323.132812 L 121.003906 323.144531 C 121.742188 323.09375 121.742188 323.09375 122.371094 322.824219 C 122.976562 322.3125 123.3125 321.796875 123.65625 321.082031 C 124.058594 319.871094 123.996094 318.605469 123.996094 317.339844 L 124.007812 316.4375 C 124.015625 315.648438 124.023438 314.863281 124.027344 314.074219 C 124.03125 313.269531 124.039062 312.464844 124.050781 311.65625 C 124.066406 310.082031 124.078125 308.503906 124.089844 306.929688 L 128.296875 306.929688 C 128.308594 308.644531 128.308594 310.355469 128.296875 312.070312 L 128.292969 312.617188 C 128.285156 313.84375 128.269531 315.070312 128.246094 316.296875 C 128.242188 316.710938 128.238281 317.128906 128.234375 317.542969 C 128.199219 321.59375 128.199219 321.59375 127.386719 323.320312 C 126.6875 324.507812 125.914062 325.339844 124.730469 326.058594 C 123.035156 326.917969 121.253906 327.136719 119.367188 327.09375 C 117.949219 326.964844 116.660156 326.601562 115.390625 325.953125 C 114.3125 325.042969 113.226562 324.023438 112.589844 322.746094 C 112.164062 321.378906 112.121094 319.972656 112.089844 318.550781 L 112.074219 317.996094 C 112.058594 317.410156 112.042969 316.824219 112.03125 316.238281 L 112 315.03125 C 111.933594 312.328125 111.90625 309.632812 111.929688 306.929688 M 206.398438 306.695312 L 211.074219 306.695312 C 212.125 309.0625 212.125 309.0625 212.46875 310.023438 C 212.546875 310.238281 212.621094 310.453125 212.703125 310.675781 L 212.945312 311.363281 L 213.210938 312.101562 C 213.488281 312.875 213.765625 313.648438 214.039062 314.425781 C 214.492188 315.6875 214.941406 316.949219 215.394531 318.210938 C 216.132812 320.273438 216.902344 322.324219 217.683594 324.371094 L 217.9375 325.039062 L 218.164062 325.628906 C 218.320312 326.101562 218.320312 326.101562 218.320312 326.566406 L 213.878906 326.566406 L 212.976562 323.992188 L 212.804688 323.507812 L 212.632812 323.011719 C 212.480469 322.578125 212.480469 322.578125 212.242188 322.125 L 204.992188 321.890625 L 204.761719 323.0625 C 204.566406 323.671875 204.367188 324.28125 204.160156 324.886719 C 203.972656 325.441406 203.785156 325.996094 203.589844 326.566406 L 199.148438 326.566406 C 200.398438 322.933594 201.695312 319.3125 203.035156 315.710938 L 203.546875 314.324219 C 204.492188 311.777344 205.441406 309.234375 206.398438 306.695312 M 208.734375 311.371094 C 208.042969 312.859375 207.457031 314.363281 206.921875 315.914062 L 206.699219 316.550781 C 206.3125 317.5625 206.3125 317.5625 206.164062 318.617188 C 207.363281 318.828125 208.429688 318.847656 209.65625 318.75 L 210.140625 318.714844 C 210.53125 318.683594 210.917969 318.652344 211.308594 318.617188 C 210.882812 316.957031 210.394531 315.316406 209.890625 313.679688 L 209.707031 313.074219 L 209.53125 312.507812 C 209.480469 312.339844 209.425781 312.171875 209.375 311.996094 L 209.203125 311.605469 Z M 98.132812 306.929688 L 103.042969 306.929688 L 103.484375 308.15625 L 105.847656 314.710938 C 107.246094 318.585938 108.644531 322.460938 110.058594 326.335938 L 109.355469 326.800781 C 108.757812 326.835938 108.160156 326.84375 107.558594 326.832031 L 107.0625 326.824219 C 106.65625 326.820312 106.253906 326.8125 105.847656 326.800781 C 105.136719 325.265625 104.558594 323.726562 103.976562 322.125 L 96.964844 322.125 L 95.328125 326.800781 C 92.371094 326.832031 92.371094 326.832031 90.882812 326.566406 C 92.253906 322.664062 93.648438 318.769531 95.066406 314.878906 C 95.21875 314.464844 95.371094 314.046875 95.523438 313.628906 C 96.34375 311.371094 97.1875 309.136719 98.132812 306.929688 M 100.238281 311.605469 C 99.902344 312.5625 99.570312 313.519531 99.238281 314.476562 C 99.125 314.800781 99.011719 315.128906 98.898438 315.453125 C 98.734375 315.921875 98.574219 316.386719 98.410156 316.855469 C 98.3125 317.136719 98.214844 317.417969 98.113281 317.710938 C 97.875 318.339844 97.875 318.339844 97.898438 318.851562 L 103.042969 318.851562 C 102.683594 317.242188 102.285156 315.734375 101.773438 314.175781 L 101.558594 313.5 L 101.347656 312.859375 L 101.160156 312.28125 L 100.9375 311.839844 Z M 138.585938 277.46875 L 143.027344 277.46875 L 143.019531 279.542969 C 143.019531 280.21875 143.015625 280.894531 143.015625 281.570312 C 143.015625 282.035156 143.011719 282.5 143.011719 282.960938 C 142.746094 287.648438 142.746094 287.648438 143.671875 292.140625 C 144.21875 292.929688 144.515625 293.195312 145.367188 293.601562 C 146.390625 293.742188 147.382812 293.71875 148.40625 293.601562 C 149.261719 293.203125 149.644531 292.894531 150.1875 292.136719 C 150.5625 291.394531 150.601562 290.90625 150.613281 290.078125 L 150.625 289.226562 L 150.628906 288.316406 L 150.644531 287.375 C 150.65625 286.554688 150.660156 285.734375 150.667969 284.914062 C 150.675781 284.074219 150.683594 283.238281 150.695312 282.398438 C 150.714844 280.753906 150.730469 279.113281 150.746094 277.46875 L 154.953125 277.46875 C 154.964844 279.175781 154.972656 280.878906 154.980469 282.582031 C 154.980469 283.164062 154.984375 283.742188 154.988281 284.320312 C 155.042969 291.984375 155.042969 291.984375 154.179688 293.769531 C 153.496094 294.902344 152.582031 295.945312 151.445312 296.640625 C 149.945312 297.332031 148.671875 297.457031 147.03125 297.445312 L 146.375 297.457031 C 144.785156 297.457031 143.503906 297.136719 142.09375 296.40625 C 140.878906 295.605469 140.1875 294.683594 139.507812 293.402344 C 139.019531 292.292969 139.007812 291.207031 138.988281 290.007812 L 138.972656 289.425781 C 138.964844 289.011719 138.957031 288.601562 138.949219 288.191406 C 138.929688 287.128906 138.902344 286.066406 138.878906 285.003906 L 138.863281 284.375 C 138.808594 282.070312 138.703125 279.769531 138.585938 277.46875 M 222.296875 277.234375 L 222.296875 280.742188 L 213.410156 280.976562 L 213.179688 285.417969 L 221.828125 285.417969 L 221.597656 288.925781 L 213.410156 288.925781 L 213.179688 293.601562 L 222.53125 293.601562 L 222.53125 297.109375 C 218.078125 297.148438 213.65625 297.007812 209.203125 296.875 L 209.203125 277.46875 L 215.488281 277.351562 L 217.472656 277.316406 L 219.023438 277.285156 L 219.839844 277.269531 L 220.617188 277.257812 L 221.292969 277.242188 C 221.628906 277.238281 221.960938 277.234375 222.296875 277.234375 M 218.089844 306.929688 L 233.988281 306.929688 L 233.988281 310.203125 L 228.144531 310.203125 L 228.144531 326.566406 L 224.167969 326.566406 L 224.167969 310.203125 L 218.089844 310.203125 Z M 132.039062 306.929688 L 147.9375 306.929688 L 147.9375 310.203125 L 142.09375 310.203125 L 142.09375 326.566406 L 138.117188 326.566406 L 138.117188 310.203125 L 132.039062 310.203125 Z M 178.335938 277.46875 L 182.546875 277.46875 L 182.546875 297.34375 L 178.570312 297.34375 C 178.539062 295.476562 178.507812 293.609375 178.480469 291.742188 C 178.464844 290.875 178.449219 290.007812 178.4375 289.140625 C 178.371094 285.25 178.324219 281.363281 178.335938 277.46875 M 238.199219 306.929688 L 242.40625 306.929688 L 242.171875 326.800781 L 238.199219 326.800781 Z M 238.199219 306.929688 "/></g></g></svg>