<svg width="44" height="44" viewBox="0 0 44 44" fill="none" xmlns="http://www.w3.org/2000/svg">
<path d="M30.4333 10.67C29.1804 9.23913 28.4898 7.4019 28.49 5.5H22.825V28.2333C22.7822 29.4639 22.2631 30.6296 21.3772 31.4847C20.4913 32.3399 19.3079 32.8174 18.0766 32.8167C15.4733 32.8167 13.31 30.69 13.31 28.05C13.31 24.8967 16.3533 22.5317 19.4883 23.5033V17.71C13.1633 16.8667 7.62665 21.78 7.62665 28.05C7.62665 34.155 12.6866 38.5 18.0583 38.5C23.815 38.5 28.49 33.825 28.49 28.05V16.5183C30.7871 18.1681 33.5451 19.0532 36.3733 19.0483V13.3833C36.3733 13.3833 32.9266 13.5483 30.4333 10.67Z" fill="white"/>
</svg>
