<svg width="117" height="117" viewBox="0 0 117 117" fill="none" xmlns="http://www.w3.org/2000/svg">
<path fill-rule="evenodd" clip-rule="evenodd" d="M58.5 9.75C31.5754 9.75 9.75 31.5754 9.75 58.5C9.75 67.7137 12.3094 76.3425 16.7602 83.694L12.4118 98.475C12.1621 99.3237 12.1456 100.224 12.3642 101.081C12.5827 101.938 13.0282 102.721 13.6537 103.346C14.2792 103.972 15.0617 104.417 15.9189 104.636C16.7761 104.854 17.6763 104.838 18.525 104.588L33.306 100.24C40.9048 104.837 49.6189 107.261 58.5 107.25C85.4246 107.25 107.25 85.4246 107.25 58.5C107.25 31.5754 85.4246 9.75 58.5 9.75ZM47.4727 69.5321C57.3349 79.3894 66.7485 80.691 70.0732 80.8129C75.1286 80.9981 80.0524 77.1371 81.9682 72.657C82.2081 72.0992 82.2948 71.4876 82.2193 70.8852C82.1439 70.2827 81.9092 69.7113 81.5392 69.2299C78.8677 65.8174 75.2554 63.3653 71.7259 60.9278C70.9894 60.417 70.0834 60.2119 69.1987 60.3556C68.314 60.4992 67.5196 60.9805 66.9825 61.698L64.0575 66.1586C63.9029 66.3975 63.6633 66.5687 63.3872 66.6375C63.1111 66.7063 62.8192 66.6676 62.5706 66.5291C60.5865 65.3933 57.6956 63.4628 55.6189 61.386C53.5421 59.3093 51.7286 56.55 50.7098 54.6926C50.5865 54.456 50.5517 54.1831 50.6115 53.9231C50.6714 53.6631 50.822 53.4329 51.0364 53.274L55.5409 49.9297C56.1856 49.372 56.6018 48.596 56.7097 47.7504C56.8177 46.9048 56.6098 46.0491 56.1259 45.3473C53.9419 42.1493 51.3971 38.0835 47.7068 35.3876C47.2295 35.0447 46.6717 34.8309 46.0875 34.7668C45.5033 34.7028 44.9125 34.7907 44.3723 35.022C39.8873 36.9428 36.0067 41.8665 36.192 46.9316C36.3139 50.2564 37.6155 59.67 47.4727 69.5321Z" fill="white"/>
</svg>
