<svg width="44" height="44" viewBox="0 0 44 44" fill="none" xmlns="http://www.w3.org/2000/svg">
<path d="M42.1667 17.8016C42.2573 15.1775 41.6835 12.573 40.4984 10.2299C39.6943 9.26853 38.5783 8.61974 37.345 8.3966C32.2439 7.93247 27.1215 7.74275 22 7.82827C16.8972 7.74209 11.7934 7.92568 6.71002 8.37827C5.70502 8.56108 4.77497 9.03248 4.03335 9.73494C2.38335 11.2566 2.20002 13.8599 2.01668 16.0599C1.74908 20.0154 1.74908 23.9845 2.01668 27.9399C2.07041 29.1781 2.25476 30.4072 2.56668 31.6066C2.78774 32.5326 3.23497 33.3892 3.86835 34.0999C4.61501 34.8396 5.56672 35.3378 6.60002 35.5299C10.5524 36.019 14.5351 36.2212 18.5167 36.1349C24.9334 36.2266 30.5617 36.1349 37.2167 35.6216C38.2746 35.4391 39.2525 34.9405 40.0217 34.1916C40.5344 33.6777 40.9177 33.0493 41.14 32.3583C41.795 30.3462 42.117 28.2408 42.0933 26.1249C42.1667 25.0983 42.1667 18.9016 42.1667 17.8016ZM17.8567 27.2249V15.8766L28.71 21.5783C25.6667 23.2649 21.6517 25.1716 17.8567 27.2249Z" fill="white"/>
</svg>
