<svg xmlns="http://www.w3.org/2000/svg" xmlns:xlink="http://www.w3.org/1999/xlink" width="500" zoomAndPan="magnify" viewBox="0 0 375 374.999991" height="500" preserveAspectRatio="xMidYMid meet" version="1.2"><defs><clipPath id="8775c1c476"><path d="M 89 173 L 295 173 L 295 296.160156 L 89 296.160156 Z M 89 173 "/></clipPath></defs><g id="4b6cf50d87"><path style=" stroke:none;fill-rule:nonzero;fill:#fdfdfd;fill-opacity:1;" d="M 281.808594 127.914062 C 282.605469 128.332031 283.035156 128.832031 283.6875 129.484375 C 284.335938 130.78125 284.050781 132.449219 284 133.871094 C 283.890625 135.292969 283.726562 136.707031 283.554688 138.125 L 283.410156 139.359375 C 283.28125 140.464844 283.152344 141.570312 283.019531 142.675781 C 282.910156 143.601562 282.796875 144.527344 282.691406 145.453125 C 282.433594 147.640625 282.171875 149.824219 281.910156 152.003906 C 281.640625 154.253906 281.375 156.503906 281.113281 158.753906 C 280.886719 160.691406 280.65625 162.628906 280.425781 164.566406 C 280.289062 165.71875 280.152344 166.875 280.015625 168.027344 C 279.867188 169.316406 279.710938 170.597656 279.558594 171.882812 L 279.425781 173.039062 C 279.382812 173.386719 279.339844 173.738281 279.292969 174.097656 L 279.183594 175.019531 C 278.914062 176.179688 278.347656 177.027344 277.640625 177.96875 C 277.113281 178.363281 277.113281 178.363281 276.269531 178.65625 C 275.117188 178.679688 274.445312 178.363281 273.433594 177.835938 C 272.144531 177.078125 270.964844 176.175781 269.773438 175.269531 C 268.78125 174.515625 267.785156 173.773438 266.78125 173.035156 L 266.011719 172.464844 L 265.265625 171.9375 L 264.597656 171.457031 L 263.964844 171.15625 C 263.296875 171.175781 263.296875 171.175781 262.710938 171.46875 C 262.164062 172.078125 261.648438 172.710938 261.167969 173.367188 C 260.859375 173.769531 260.554688 174.171875 260.246094 174.574219 L 259.765625 175.210938 C 258.941406 176.285156 258.085938 177.332031 257.234375 178.382812 L 256.714844 179.019531 C 255.085938 181.015625 253.429688 182.984375 251.753906 184.941406 L 251.300781 185.472656 C 250.519531 186.390625 249.734375 187.304688 248.949219 188.21875 C 248.3125 188.960938 247.679688 189.703125 247.046875 190.449219 C 245.261719 192.550781 243.433594 194.617188 241.5625 196.640625 C 240.9375 197.320312 240.324219 198.011719 239.722656 198.707031 C 238.457031 200.171875 237.136719 201.585938 235.820312 203.003906 C 235.207031 203.667969 234.59375 204.335938 233.984375 205.011719 C 232.308594 206.863281 230.589844 208.664062 228.800781 210.410156 C 227.953125 211.246094 227.144531 212.101562 226.371094 213.007812 C 224.878906 214.734375 223.253906 216.332031 221.640625 217.945312 C 221.097656 218.488281 220.554688 219.03125 220.011719 219.574219 C 218.386719 221.203125 216.757812 222.804688 215.003906 224.300781 C 214.332031 224.882812 213.710938 225.507812 213.09375 226.144531 C 212.046875 227.203125 210.960938 228.214844 209.832031 229.183594 C 209.101562 229.816406 208.386719 230.46875 207.671875 231.121094 C 206.296875 232.363281 204.875 233.539062 203.433594 234.707031 C 202.691406 235.320312 201.964844 235.953125 201.253906 236.601562 C 199.941406 237.785156 198.5625 238.875 197.167969 239.960938 C 195.972656 240.894531 194.785156 241.84375 193.617188 242.8125 C 189.003906 246.609375 184.167969 250.027344 179.207031 253.347656 L 178.546875 253.785156 C 166.863281 261.605469 153.375 269.628906 139.054688 270.792969 C 133.605469 271.070312 128.390625 270.742188 123.402344 268.289062 C 122.175781 267.535156 121.0625 266.703125 119.960938 265.78125 L 119.277344 265.21875 C 116.820312 262.984375 115.222656 259.945312 114.207031 256.8125 C 112.832031 251.757812 112.589844 246.757812 113.839844 241.660156 C 114.65625 238.667969 115.859375 234.476562 118.082031 232.253906 C 118.980469 232.175781 118.980469 232.175781 119.960938 232.253906 C 120.464844 232.644531 120.464844 232.644531 120.898438 233.195312 C 121.128906 233.835938 121.128906 233.835938 121.289062 234.570312 L 121.476562 235.382812 L 121.664062 236.230469 C 122.109375 238.277344 122.59375 240.175781 123.71875 241.96875 C 124.753906 243.082031 125.628906 243.613281 127.0625 244.101562 C 130.796875 245.058594 134.246094 244.171875 137.882812 243.160156 C 151.980469 239.015625 164.890625 230.394531 176.9375 222.226562 L 177.699219 221.714844 C 183.203125 218 188.480469 213.972656 193.746094 209.933594 C 194.367188 209.457031 194.988281 208.984375 195.609375 208.511719 C 199.546875 205.503906 203.367188 202.363281 207.097656 199.101562 C 208.03125 198.28125 208.976562 197.476562 209.921875 196.671875 C 211.910156 194.980469 213.84375 193.238281 215.75 191.457031 C 216.566406 190.699219 217.390625 189.953125 218.21875 189.210938 C 222.660156 185.210938 226.914062 181.035156 231.140625 176.808594 C 231.984375 175.960938 232.832031 175.117188 233.679688 174.273438 C 234.34375 173.613281 235.007812 172.949219 235.671875 172.285156 C 235.984375 171.972656 236.296875 171.660156 236.609375 171.351562 C 238.445312 169.527344 240.15625 167.65625 241.761719 165.628906 C 242.558594 164.648438 243.425781 163.777344 244.339844 162.910156 C 245.519531 161.792969 246.621094 160.710938 247.371094 159.25 C 247.347656 158.425781 247.347656 158.425781 246.746094 157.683594 C 245.964844 156.917969 245.121094 156.242188 244.261719 155.566406 L 243.535156 154.984375 C 242.835938 154.417969 242.128906 153.855469 241.425781 153.296875 C 240.765625 152.769531 240.105469 152.238281 239.449219 151.710938 L 238.667969 151.089844 C 237.914062 150.414062 237.308594 149.742188 236.730469 148.910156 C 236.488281 147.226562 236.488281 147.226562 236.730469 146.402344 C 237.378906 145.417969 237.910156 144.738281 238.945312 144.15625 C 239.808594 143.777344 240.683594 143.4375 241.566406 143.105469 C 242.125 142.886719 242.683594 142.667969 243.242188 142.449219 C 243.667969 142.28125 244.09375 142.113281 244.519531 141.949219 C 246.515625 141.171875 248.5 140.371094 250.484375 139.566406 C 253.714844 138.253906 256.949219 136.945312 260.183594 135.644531 C 262.082031 134.882812 263.976562 134.117188 265.871094 133.347656 C 267.730469 132.597656 269.589844 131.847656 271.449219 131.101562 C 272.152344 130.816406 272.855469 130.53125 273.554688 130.246094 C 274.53125 129.851562 275.507812 129.460938 276.484375 129.070312 L 277.351562 128.710938 C 278.914062 128.09375 280.125 127.75 281.808594 127.914062 "/><path style=" stroke:none;fill-rule:nonzero;fill:#fdfdfd;fill-opacity:1;" d="M 165.480469 111.363281 C 166.292969 111.621094 166.292969 111.621094 166.738281 112.035156 C 167.941406 113.414062 168.703125 114.761719 169.386719 116.453125 L 169.707031 117.210938 C 170.046875 118.023438 170.378906 118.835938 170.714844 119.652344 C 170.949219 120.214844 171.183594 120.78125 171.421875 121.34375 C 172.40625 123.695312 173.375 126.054688 174.339844 128.417969 C 174.589844 129.039062 174.84375 129.65625 175.097656 130.277344 C 175.398438 131.011719 175.695312 131.746094 175.992188 132.484375 C 177.628906 136.832031 177.628906 136.832031 180.359375 140.488281 C 182.515625 141.808594 184.722656 142.234375 187.1875 142.601562 L 188.164062 142.753906 C 189.207031 142.914062 190.253906 143.074219 191.296875 143.230469 L 193.457031 143.5625 C 196.679688 144.0625 199.902344 144.542969 203.132812 145 L 203.882812 145.109375 C 205.007812 145.269531 206.136719 145.425781 207.265625 145.578125 C 209.195312 145.847656 210.898438 146.101562 212.625 147.027344 C 213.230469 147.558594 213.230469 147.558594 213.5625 148.28125 C 213.730469 149.300781 213.800781 149.820312 213.5625 150.789062 C 211.792969 153.734375 208.328125 156.140625 205.75 158.371094 C 204.972656 159.058594 204.210938 159.761719 203.445312 160.464844 C 202.34375 161.472656 201.210938 162.445312 200.042969 163.382812 C 197.648438 165.316406 195.433594 167.457031 193.214844 169.589844 L 192.320312 170.4375 C 191.6875 171.113281 191.367188 171.558594 191.023438 172.410156 C 190.679688 175.183594 191.269531 177.929688 191.816406 180.636719 C 191.964844 181.378906 192.109375 182.117188 192.253906 182.859375 C 192.515625 184.207031 192.78125 185.554688 193.042969 186.902344 C 193.519531 189.3125 193.988281 191.722656 194.453125 194.136719 C 194.566406 194.726562 194.679688 195.3125 194.796875 195.902344 C 194.960938 196.730469 195.121094 197.558594 195.277344 198.390625 L 195.429688 199.121094 C 195.757812 200.890625 195.789062 202.597656 195.40625 204.367188 C 194.808594 205.160156 194.398438 205.5 193.527344 205.933594 C 192.316406 206.03125 191.464844 205.984375 190.324219 205.550781 L 189.222656 204.976562 L 188.589844 204.644531 C 184.25 202.363281 179.992188 199.921875 175.722656 197.515625 L 174.675781 196.925781 C 174.027344 196.5625 173.378906 196.195312 172.734375 195.828125 C 169.074219 193.511719 169.074219 193.511719 165.039062 192.246094 C 161.484375 192.601562 158.042969 195.082031 154.996094 196.773438 C 153.199219 197.765625 151.386719 198.710938 149.5625 199.648438 C 146.722656 201.113281 143.9375 202.660156 141.183594 204.28125 C 137.707031 206.296875 137.707031 206.296875 135.925781 206.5625 C 134.972656 206.296875 134.535156 205.945312 133.734375 205.308594 C 133.285156 204.761719 133.285156 204.761719 133.109375 204.054688 C 133.007812 201.949219 133.335938 200.019531 133.738281 197.957031 L 133.9375 196.910156 C 134.148438 195.804688 134.363281 194.703125 134.578125 193.597656 C 134.714844 192.878906 134.851562 192.160156 134.988281 191.4375 L 135.609375 188.199219 C 135.960938 186.367188 136.320312 184.535156 136.691406 182.707031 L 136.914062 181.605469 C 137.050781 180.921875 137.191406 180.238281 137.332031 179.554688 C 137.792969 177.234375 138.207031 174.9375 137.617188 172.605469 C 136.421875 169.703125 133.773438 167.558594 131.578125 165.40625 C 131.117188 164.949219 130.65625 164.492188 130.195312 164.035156 C 128.992188 162.835938 127.78125 161.640625 126.570312 160.449219 C 124.859375 158.761719 123.15625 157.070312 121.449219 155.375 C 120.542969 154.476562 119.632812 153.578125 118.722656 152.679688 L 117.484375 151.457031 L 116.910156 150.890625 C 115.613281 149.605469 115.613281 149.605469 115.265625 148.910156 C 115.148438 147.871094 115.148438 147.871094 115.265625 146.714844 C 115.851562 145.835938 115.851562 145.835938 116.828125 145.148438 C 119.140625 144.464844 121.609375 144.320312 124 144.09375 L 126.371094 143.859375 C 127.597656 143.742188 128.824219 143.625 130.050781 143.503906 C 134.480469 143.078125 138.902344 142.617188 143.316406 142.011719 L 144.429688 141.867188 L 145.460938 141.722656 L 146.367188 141.59375 C 147.308594 141.363281 147.964844 140.996094 148.761719 140.449219 C 149.976562 139.183594 150.597656 137.726562 151.28125 136.132812 L 151.640625 135.316406 C 152.027344 134.4375 152.410156 133.554688 152.792969 132.675781 L 153.589844 130.851562 C 154.257812 129.324219 154.921875 127.800781 155.585938 126.273438 C 156.351562 124.515625 157.117188 122.757812 157.882812 121 C 158.25 120.164062 158.613281 119.324219 158.976562 118.484375 C 161.226562 113.308594 161.226562 113.308594 162.261719 112.09375 C 163.371094 111.515625 164.246094 111.433594 165.480469 111.363281 "/><path style=" stroke:none;fill-rule:nonzero;fill:#fefefe;fill-opacity:1;" d="M 257.679688 207.238281 C 258.328125 207.5 258.328125 207.5 258.96875 208.261719 C 259.78125 209.601562 260.183594 211.085938 260.636719 212.574219 C 261.96875 216.707031 263.578125 219.832031 266.78125 222.855469 C 269.332031 225.117188 272.210938 226.023438 275.433594 226.96875 C 278.113281 227.777344 278.113281 227.777344 279.046875 228.65625 C 279.617188 229.433594 279.617188 229.433594 279.8125 230.53125 C 279.617188 231.628906 279.617188 231.628906 279.019531 232.414062 C 277.730469 233.453125 276.453125 233.808594 274.882812 234.273438 C 270.917969 235.523438 267.804688 237.023438 264.902344 240.089844 C 262.238281 243.261719 260.832031 247.074219 259.636719 250.988281 C 259.296875 251.921875 259.015625 252.535156 258.328125 253.25 C 257.273438 253.542969 257.273438 253.542969 256.136719 253.5625 C 255.277344 253.210938 255.277344 253.210938 254.574219 252.621094 C 253.71875 251.398438 253.335938 250.144531 252.949219 248.726562 C 251.890625 245.148438 250.164062 241.9375 247.542969 239.242188 C 244.386719 236.394531 241.03125 235.113281 237.007812 233.878906 L 235.972656 233.550781 L 235.042969 233.273438 C 234.222656 232.882812 234.222656 232.882812 233.488281 232.125 L 232.972656 231.316406 C 232.953125 230.199219 232.953125 230.199219 233.285156 229.121094 C 234.148438 228.257812 234.824219 227.875 235.992188 227.492188 C 236.425781 227.378906 236.859375 227.269531 237.296875 227.164062 C 241.304688 226.0625 244.898438 224.433594 247.894531 221.484375 C 250.617188 218.417969 252.136719 214.644531 253.359375 210.773438 C 253.777344 209.460938 254.1875 208.480469 255.199219 207.5 C 256.035156 207.082031 256.765625 207.195312 257.679688 207.238281 "/><path style=" stroke:none;fill-rule:nonzero;fill:#fdfdfd;fill-opacity:1;" d="M 218.570312 91.257812 C 219.511719 91.472656 219.511719 91.472656 220.449219 91.882812 C 221.445312 92.921875 221.738281 94.152344 222.113281 95.507812 C 223.210938 99.199219 224.867188 102.027344 227.648438 104.730469 C 230.210938 107.007812 233.136719 108.21875 236.421875 109.089844 C 237.46875 109.472656 238.128906 109.898438 238.917969 110.683594 C 239.117188 111.308594 239.117188 111.308594 239.097656 111.9375 L 239.097656 112.5625 C 238.917969 113.1875 238.917969 113.1875 238.46875 113.828125 C 237.308594 114.714844 236.054688 115.050781 234.675781 115.480469 C 231.34375 116.585938 228.484375 117.984375 226.054688 120.585938 C 223.917969 123.28125 222.671875 126.191406 221.726562 129.46875 C 221.410156 130.527344 221.148438 131.269531 220.464844 132.152344 L 219.824219 132.617188 C 218.726562 132.617188 218.726562 132.617188 217.632812 132.300781 C 216.992188 131.824219 216.992188 131.824219 216.378906 131.050781 C 216.015625 130.183594 215.761719 129.289062 215.5 128.386719 C 214.355469 124.742188 212.804688 121.84375 209.988281 119.199219 C 207.207031 116.851562 203.988281 115.800781 200.53125 114.839844 C 199.867188 114.636719 199.867188 114.636719 198.847656 114.128906 C 198.164062 113.089844 198.164062 113.089844 197.910156 111.9375 C 198.105469 110.9375 198.105469 110.9375 198.847656 110.054688 C 199.957031 109.507812 201.113281 109.160156 202.292969 108.804688 C 205.550781 107.75 208.84375 106.367188 211.191406 103.785156 C 213.132812 101.34375 214.308594 98.808594 215.328125 95.894531 C 216.375 92.90625 216.375 92.90625 217.164062 91.921875 C 217.632812 91.570312 217.632812 91.570312 218.570312 91.257812 "/><g clip-rule="nonzero" clip-path="url(#8775c1c476)"><path style=" stroke:none;fill-rule:nonzero;fill:#fefefe;fill-opacity:1;" d="M 271.476562 340.980469 L 277.113281 340.980469 C 278.402344 342.253906 279.160156 343.226562 279.988281 344.761719 C 280.214844 345.144531 280.445312 345.527344 280.679688 345.910156 C 281.152344 346.695312 281.613281 347.480469 282.066406 348.273438 C 283.097656 350.058594 284.238281 351.773438 285.367188 353.496094 L 285.949219 354.402344 L 286.492188 355.246094 L 286.960938 355.976562 C 287.476562 356.695312 288.054688 357.289062 288.695312 357.902344 L 288.667969 357.191406 C 288.453125 351.78125 288.339844 346.394531 288.382812 340.980469 L 294.015625 340.980469 L 294.015625 367.925781 L 288.695312 367.925781 C 287.675781 366.921875 287.171875 366.324219 286.539062 365.117188 C 285.96875 364.074219 285.308594 363.089844 284.664062 362.089844 C 284.09375 361.199219 283.523438 360.308594 282.960938 359.414062 C 281.835938 357.628906 280.703125 355.851562 279.558594 354.082031 L 279.046875 353.28125 L 278.566406 352.542969 L 278.148438 351.894531 C 277.691406 351.222656 277.691406 351.222656 276.800781 350.378906 L 277.113281 367.613281 L 271.476562 367.613281 Z M 104.308594 173.347656 C 105.238281 173.480469 105.238281 173.480469 106.1875 173.976562 C 106.601562 174.847656 106.882812 175.585938 107.144531 176.503906 C 107.300781 176.988281 107.457031 177.472656 107.613281 177.957031 L 107.84375 178.664062 C 108.503906 180.5625 109.574219 182.175781 110.882812 183.6875 C 112.972656 185.40625 115.324219 186.328125 117.875 187.121094 C 118.472656 187.3125 119.0625 187.535156 119.648438 187.761719 L 120.273438 188.703125 C 120.253906 189.640625 120.253906 189.640625 119.960938 190.582031 C 118.90625 191.335938 117.875 191.714844 116.632812 192.070312 C 114.316406 192.828125 112.285156 193.875 110.546875 195.617188 C 109.140625 197.316406 108.261719 199.199219 107.4375 201.234375 L 107.0625 202.152344 C 106.765625 202.886719 106.472656 203.628906 106.1875 204.367188 C 105.167969 204.605469 105.167969 204.605469 103.996094 204.683594 C 103.351562 204.210938 103.351562 204.210938 102.742188 203.429688 C 102.417969 202.636719 102.125 201.832031 101.863281 201.019531 C 101.113281 198.898438 100.285156 197.207031 98.671875 195.59375 L 98.082031 195.003906 C 96.28125 193.421875 94.230469 192.710938 91.996094 191.949219 C 90.984375 191.574219 90.140625 191.234375 89.28125 190.582031 C 89.125 189.484375 89.125 189.484375 89.28125 188.390625 C 89.613281 187.894531 89.613281 187.894531 90.21875 187.449219 C 91.011719 187.1875 91.785156 186.957031 92.589844 186.742188 C 95.09375 186.011719 97.078125 185.027344 98.910156 183.113281 C 100.582031 181.050781 101.601562 178.582031 102.273438 176.03125 C 102.566406 175.003906 102.757812 174.585938 103.464844 173.742188 Z M 260.648438 342.308594 C 262.320312 343.449219 263.429688 344.863281 264.375 346.640625 C 265.296875 348.667969 265.683594 350.679688 265.84375 352.886719 L 265.894531 353.527344 C 266.015625 356.496094 265.410156 359.613281 264.082031 362.265625 C 263.066406 363.957031 261.820312 365.234375 260.207031 366.359375 C 257.394531 367.914062 254.84375 368.0625 251.6875 368.011719 C 249.503906 367.925781 247.832031 367.34375 245.980469 366.203125 C 244.25 364.96875 243.007812 363.554688 242.050781 361.660156 C 240.753906 358.4375 240.273438 355.414062 240.484375 351.949219 C 240.855469 349.386719 241.550781 347.210938 242.988281 345.054688 L 243.539062 344.210938 C 245.109375 342.59375 246.992188 341.460938 249.160156 340.832031 C 253.074219 339.925781 257.109375 340.347656 260.648438 342.308594 M 249.496094 346.203125 C 248.257812 347.132812 247.351562 348.242188 246.648438 349.617188 C 245.933594 352.152344 245.863281 354.890625 246.316406 357.488281 C 246.738281 359.097656 247.515625 360.429688 248.625 361.660156 C 249.855469 362.621094 251.167969 362.980469 252.695312 363.207031 C 254.007812 363.292969 255.019531 363.125 256.21875 362.578125 C 257.339844 361.980469 258.074219 361.441406 258.761719 360.34375 C 259.664062 358.664062 260.117188 357.292969 260.207031 355.394531 L 260.246094 354.722656 C 260.308594 352.660156 260.105469 350.632812 259.269531 348.730469 C 258.765625 347.835938 258.28125 347.136719 257.460938 346.511719 C 256.070312 345.691406 254.859375 345.3125 253.261719 345.269531 C 251.8125 345.289062 250.753906 345.472656 249.496094 346.203125 M 197.753906 302.480469 C 199.015625 303.402344 199.941406 304.542969 200.726562 305.886719 C 201.484375 307.710938 201.570312 309.582031 201.355469 311.527344 C 200.949219 313.074219 200.394531 314.304688 199.378906 315.542969 C 198.730469 316.070312 198.066406 316.574219 197.386719 317.054688 L 196.792969 317.476562 L 196.34375 317.792969 C 196.953125 318.882812 197.558594 319.96875 198.164062 321.054688 L 199.085938 322.707031 L 199.675781 323.761719 L 200.21875 324.730469 C 200.554688 325.324219 200.902344 325.910156 201.261719 326.488281 C 201.667969 327.195312 201.667969 327.195312 201.667969 327.820312 L 195.71875 327.820312 L 194.722656 326.082031 L 193.765625 324.410156 C 193.542969 324.023438 193.320312 323.636719 193.101562 323.25 C 192.78125 322.691406 192.460938 322.136719 192.140625 321.578125 L 191.5625 320.566406 C 190.890625 319.441406 190.890625 319.441406 190.082031 318.421875 C 189 318.34375 189 318.34375 187.894531 318.421875 L 186.640625 318.109375 L 186.953125 328.132812 L 181.320312 328.132812 L 181.320312 301.5 C 194.839844 301.101562 194.839844 301.101562 197.753906 302.480469 M 186.953125 305.886719 L 186.640625 306.199219 C 186.613281 306.757812 186.605469 307.316406 186.609375 307.875 L 186.613281 308.902344 L 186.621094 309.980469 L 186.625 311.0625 C 186.628906 311.949219 186.632812 312.835938 186.640625 313.722656 C 187.644531 313.75 188.648438 313.765625 189.652344 313.78125 L 190.511719 313.804688 C 191.828125 313.816406 192.765625 313.773438 194.007812 313.292969 C 194.8125 312.816406 194.8125 312.816406 195.347656 312.054688 C 195.773438 311.09375 195.988281 310.390625 196.03125 309.335938 C 195.722656 308.164062 195.722656 308.164062 195.09375 307.140625 C 194.183594 306.441406 193.382812 306.121094 192.273438 305.886719 C 191.851562 305.859375 191.425781 305.847656 191 305.847656 L 190.289062 305.84375 L 189.554688 305.847656 L 188.8125 305.84375 C 188.191406 305.847656 187.574219 305.867188 186.953125 305.886719 M 128.726562 340.980469 L 135.242188 340.902344 L 137.277344 340.867188 C 142.546875 340.816406 142.546875 340.816406 145.015625 341.859375 C 146.101562 342.519531 146.871094 343.339844 147.507812 344.425781 C 148.507812 346.421875 148.652344 348.164062 148.578125 350.394531 C 148.425781 351.847656 148.09375 352.894531 147.351562 354.144531 C 146.480469 355.300781 145.53125 356.042969 144.261719 356.746094 L 143.753906 356.960938 C 144.15625 358.300781 144.671875 359.433594 145.386719 360.636719 L 145.976562 361.632812 L 146.589844 362.660156 C 146.992188 363.335938 147.394531 364.011719 147.792969 364.691406 L 148.332031 365.59375 C 148.761719 366.359375 148.761719 366.359375 149.074219 367.300781 C 145.035156 367.777344 145.035156 367.777344 143.125 367.300781 C 141.992188 366.316406 141.484375 365.21875 140.90625 363.847656 C 140.394531 362.726562 139.710938 361.703125 139.054688 360.660156 C 138.625 359.960938 138.207031 359.246094 137.804688 358.527344 L 137.804688 357.902344 L 134.046875 357.902344 L 134.046875 367.613281 L 128.726562 367.613281 Z M 134.046875 345.367188 L 134.046875 353.199219 L 137.082031 353.257812 L 138.027344 353.285156 C 139.25 353.296875 140.121094 353.285156 141.246094 352.78125 C 142.121094 352.054688 142.609375 351.398438 143.125 350.378906 C 143.289062 349.464844 143.230469 348.824219 143.125 347.875 C 142.820312 346.972656 142.820312 346.972656 142.1875 346.308594 C 141.332031 345.742188 140.597656 345.398438 139.570312 345.292969 C 138.734375 345.277344 137.898438 345.28125 137.0625 345.308594 Z M 186.328125 340.980469 L 193.214844 340.980469 L 193.738281 342.457031 C 194.328125 344.105469 194.914062 345.757812 195.5 347.40625 L 196.5625 350.390625 C 198.230469 355.082031 199.917969 359.761719 201.664062 364.425781 L 202.039062 365.433594 L 202.371094 366.324219 C 202.605469 366.988281 202.605469 366.988281 202.605469 367.300781 C 201.371094 367.589844 200.210938 367.664062 198.949219 367.671875 L 197.867188 367.6875 L 196.972656 367.613281 C 196.121094 366.761719 195.886719 365.777344 195.523438 364.65625 L 195.304688 364.011719 C 195.003906 363.085938 194.78125 362.324219 194.78125 361.347656 L 184.761719 361.347656 L 183.824219 364.480469 L 182.882812 367.300781 L 176.9375 367.300781 C 178.792969 361.894531 180.726562 356.515625 182.6875 351.144531 L 183.957031 347.660156 C 184.21875 346.945312 184.480469 346.230469 184.738281 345.515625 C 184.855469 345.195312 184.976562 344.875 185.09375 344.542969 L 185.40625 343.691406 C 185.726562 342.792969 186.027344 341.886719 186.328125 340.980469 M 189.457031 347.246094 C 188.738281 349.152344 188.042969 351.066406 187.363281 352.984375 L 187.058594 353.832031 L 186.773438 354.644531 L 186.511719 355.378906 C 186.285156 356.058594 186.285156 356.058594 186.328125 356.960938 L 193.214844 356.960938 C 192.878906 354.957031 192.320312 353.144531 191.6875 351.222656 L 191.355469 350.167969 L 191.027344 349.171875 L 190.726562 348.257812 L 190.398438 347.5625 Z M 115.394531 340.882812 C 117.523438 341.605469 119.296875 342.730469 120.8125 344.390625 C 121.917969 345.777344 122.582031 347.113281 123.089844 348.8125 L 123.089844 350.066406 C 121.347656 350.648438 119.570312 350.742188 117.769531 350.378906 C 117.050781 349.644531 116.703125 348.957031 116.273438 348.027344 C 115.945312 347.246094 115.945312 347.246094 115.410156 346.769531 C 114.355469 346.078125 113.367188 345.761719 112.132812 345.59375 C 110.691406 345.527344 109.601562 345.730469 108.28125 346.328125 C 107.292969 346.871094 106.617188 347.335938 106.03125 348.304688 C 104.875 351.097656 104.75 353.671875 104.933594 356.648438 C 105.191406 358.308594 105.6875 359.664062 106.695312 361.015625 C 107.421875 361.773438 108.105469 362.214844 109.082031 362.601562 C 110.667969 363.03125 112.105469 362.976562 113.699219 362.601562 C 114.582031 362.324219 115.230469 362 115.890625 361.347656 C 116.144531 360.800781 116.394531 360.253906 116.632812 359.703125 C 117.074219 358.867188 117.074219 358.867188 117.769531 358.214844 C 119.5 357.800781 121.339844 358.039062 123.089844 358.214844 C 123.035156 359.921875 122.820312 361.144531 121.976562 362.640625 C 120.828125 364.398438 119.507812 365.757812 117.652344 366.761719 C 114.570312 368.179688 111.417969 368.226562 108.066406 367.925781 C 106 367.457031 104.402344 366.527344 102.761719 365.207031 C 101.125 363.636719 100.363281 361.8125 99.535156 359.742188 C 98.585938 356.109375 98.726562 352.210938 99.601562 348.582031 C 100.28125 346.433594 101.359375 344.757812 102.996094 343.214844 C 106.472656 340.382812 111.113281 340.023438 115.394531 340.882812 M 216.066406 301.1875 L 222.640625 301.1875 C 223.726562 303.75 224.734375 306.34375 225.664062 308.964844 L 226.0625 310.089844 C 226.414062 311.070312 226.761719 312.050781 227.105469 313.03125 C 227.457031 314.011719 227.804688 314.992188 228.152344 315.972656 C 229.558594 319.917969 230.953125 323.871094 232.347656 327.820312 L 226.398438 327.820312 C 225.589844 325.84375 224.882812 323.902344 224.207031 321.867188 L 214.5 321.867188 C 213.898438 323.59375 213.898438 323.59375 213.292969 325.316406 L 213.066406 325.96875 L 212.832031 326.632812 C 212.625 327.195312 212.625 327.195312 212.3125 327.820312 L 206.675781 327.820312 C 207.296875 325.417969 208.039062 323.113281 208.917969 320.796875 L 209.296875 319.785156 C 209.695312 318.730469 210.09375 317.675781 210.492188 316.621094 C 211.011719 315.238281 211.53125 313.855469 212.050781 312.472656 L 212.433594 311.449219 C 213.703125 308.046875 214.886719 304.621094 216.066406 301.1875 M 219.199219 307.140625 C 218.707031 308.511719 218.214844 309.882812 217.726562 311.257812 C 217.558594 311.722656 217.394531 312.191406 217.226562 312.65625 C 216.984375 313.328125 216.746094 313.996094 216.507812 314.667969 L 216.277344 315.300781 C 215.886719 316.367188 215.886719 316.367188 215.753906 317.480469 L 222.953125 317.480469 C 222.316406 315.136719 221.660156 312.847656 220.898438 310.546875 L 220.613281 309.652344 L 220.332031 308.804688 L 220.082031 308.039062 L 219.824219 307.453125 Z M 154.394531 340.980469 L 172.238281 340.980469 L 172.238281 345.367188 L 159.71875 345.367188 L 160.03125 351.632812 L 171.300781 351.949219 L 170.988281 356.332031 L 159.71875 356.019531 L 159.71875 362.601562 L 172.238281 362.601562 L 172.238281 367.300781 L 154.394531 367.300781 Z M 158.464844 301.1875 L 164.414062 301.1875 C 163.578125 304.523438 162.425781 307.738281 161.285156 310.980469 L 160.652344 312.773438 C 160.128906 314.269531 159.605469 315.765625 159.078125 317.257812 C 158.707031 318.3125 158.335938 319.367188 157.964844 320.421875 C 157.648438 321.332031 157.328125 322.246094 157.003906 323.15625 L 156.5625 324.414062 C 156.359375 324.988281 156.15625 325.566406 155.953125 326.140625 L 155.613281 327.109375 C 155.335938 327.820312 155.335938 327.820312 155.023438 328.132812 C 154.554688 328.160156 154.089844 328.167969 153.621094 328.164062 L 152.769531 328.160156 L 151.871094 328.152344 L 150.972656 328.148438 C 150.234375 328.144531 149.5 328.140625 148.761719 328.132812 L 148.527344 327.46875 C 147.792969 325.355469 147.054688 323.246094 146.320312 321.136719 C 145.941406 320.054688 145.5625 318.96875 145.183594 317.886719 C 144.746094 316.632812 144.308594 315.375 143.871094 314.121094 L 143.652344 313.5 C 142.597656 310.480469 141.519531 307.46875 140.398438 304.472656 L 140.109375 303.695312 L 139.859375 303.023438 C 139.683594 302.441406 139.683594 302.441406 139.683594 301.5 L 145.628906 301.8125 C 146.421875 304.125 147.210938 306.4375 148 308.746094 C 148.289062 309.597656 148.582031 310.449219 148.871094 311.300781 L 149.160156 312.148438 C 149.636719 313.539062 150.105469 314.933594 150.566406 316.332031 L 150.828125 317.125 C 150.992188 317.621094 151.152344 318.117188 151.3125 318.613281 C 151.605469 319.699219 151.605469 319.699219 152.203125 320.613281 C 152.945312 318.402344 153.6875 316.191406 154.425781 313.976562 C 154.679688 313.222656 154.929688 312.472656 155.183594 311.722656 C 155.546875 310.636719 155.910156 309.550781 156.269531 308.464844 L 156.609375 307.460938 C 157.300781 305.386719 157.910156 303.304688 158.464844 301.1875 M 202.917969 341.292969 L 224.207031 341.292969 L 223.894531 345.679688 L 216.378906 345.679688 L 216.691406 367.613281 L 211.058594 367.613281 L 210.746094 345.679688 L 203.230469 345.367188 C 202.917969 344.742188 202.917969 344.742188 202.917969 341.292969 M 237.042969 301.5 L 242.675781 301.5 L 242.675781 323.121094 L 253.945312 323.121094 L 253.945312 327.820312 L 237.355469 327.820312 Z M 169.421875 301.5 L 175.058594 301.5 L 175.058594 328.132812 L 169.421875 328.132812 Z M 229.214844 340.980469 L 234.851562 340.980469 L 234.851562 367.613281 L 229.527344 367.613281 C 229.28125 358.738281 229.175781 349.859375 229.214844 340.980469 "/></g><path style=" stroke:none;fill-rule:nonzero;fill:#e7e8ec;fill-opacity:1;" d="M 113.386719 245.726562 L 114.011719 245.726562 L 114.011719 251.054688 L 113.074219 251.054688 C 113.066406 250.226562 113.058594 249.398438 113.054688 248.566406 L 113.046875 247.851562 C 113.042969 247.246094 113.058594 246.644531 113.074219 246.042969 Z M 113.386719 245.726562 "/></g></svg>