<svg width="1440" height="188" viewBox="0 0 1440 188" fill="none" xmlns="http://www.w3.org/2000/svg" preserveAspectRatio="none">
<path d="M-12 98.9483C-12 26.7216 64.3132 117.439 104.573 117.439C150.241 117.439 137.622 -1.03658e-05 187.496 8.48923e-06C260.119 3.59447e-05 268.015 140.926 308.275 140.926C348.535 140.926 384.438 63.4668 441.072 63.4668C508.973 63.4668 537.215 132.431 570.264 132.431C603.313 132.431 628.55 42.9774 666.406 42.9774C704.263 42.9774 746.926 146.923 789.589 146.923C830.56 146.923 870.041 81.6865 917.579 79.4584C984.696 76.3126 1006.51 166.913 1035.35 159.417C1064.2 151.92 1074.41 63.4668 1096.04 63.4668C1120.08 63.4668 1133.18 123.935 1159.14 123.935C1185.09 123.935 1198.8 41.4782 1222.23 41.4782C1242.06 41.4782 1256.48 159.417 1288.33 159.417C1320.18 159.417 1326.19 66.4652 1349.62 66.4652C1384.21 66.4652 1376.36 118.251 1403.7 123.935C1437.35 130.931 1471 0 1471 0L1443.96 167.912H1.8205C1.8205 167.912 -11.9999 244.372 -12 98.9483Z" fill="white"/>
</svg>
