<svg xmlns="http://www.w3.org/2000/svg" viewBox="0 0 17.34 12.38"><defs><style>.cls-1{fill:#4736c1;}</style></defs><g id="Capa_2" data-name="Capa 2"><g id="Capa_1-2" data-name="Capa 1"><path class="cls-1" d="M4.18,12.38c.07-.74.1-1.11.17-1.84.21-1.4-1-2.4-2.25-2.69L0,7.39l2.48-.47A7.15,7.15,0,0,0,6.91,4.24L8.24,2.4c-.07.73-.11,1.1-.17,1.84a2.59,2.59,0,0,0,2.25,2.68l2.1.47-2.48.46a7.12,7.12,0,0,0-4.43,2.69L4.18,12.38"/><path class="cls-1" d="M12.64,5.7c0-.42.06-.63.09-1a1.44,1.44,0,0,0-1.28-1.54l-1.2-.26,1.41-.27a4.12,4.12,0,0,0,2.53-1.53L15,0l-.1,1.05a1.45,1.45,0,0,0,1.29,1.53l1.2.27-1.42.26a4.14,4.14,0,0,0-2.53,1.54l-.75,1"/><path class="cls-1" d="M8.19,12c0-.26,0-.39.06-.64a.89.89,0,0,0-.79-.94l-.73-.16.86-.17A2.51,2.51,0,0,0,9.14,9.2l.46-.65,0,.65a.86.86,0,0,0,.78.93l.74.17-.87.16a2.56,2.56,0,0,0-1.55.94L8.19,12"/></g></g></svg>